<?xml version="1.0" encoding="UTF-8"?>
<svg version="1.1" xmlns="http://www.w3.org/2000/svg" width="250" height="250">
<path d="M0 0 C5.20146554 4.44773811 10.28153516 9.0395626 15 14 C15.64195312 14.64710937 16.28390625 15.29421875 16.9453125 15.9609375 C40.32400698 40.48005611 48.77467632 72.8247884 48.31640625 105.91796875 C48.01780009 115.24722481 46.46702299 124.01823914 44 133 C43.82339844 133.66741211 43.64679688 134.33482422 43.46484375 135.02246094 C38.34576489 153.83981564 27.47590106 172.843517 13 186 C11.8553125 187.175625 11.8553125 187.175625 10.6875 188.375 C9.800625 189.24125 8.91375 190.1075 8 191 C7.37351563 191.63421875 6.74703125 192.2684375 6.1015625 192.921875 C-18.25540755 216.36441955 -50.87344985 224.62027087 -83.75 224.27734375 C-115.53530659 223.44372598 -145.86483146 208.47728861 -168 186 C-171.17032212 182.45310671 -174.12344302 178.78783267 -177 175 C-177.59296875 174.23429688 -178.1859375 173.46859375 -178.796875 172.6796875 C-188.32245523 159.78956746 -194.74508943 145.38504747 -199 130 C-199.3403125 128.79988281 -199.680625 127.59976563 -200.03125 126.36328125 C-207.65942638 93.69632221 -200.36894617 59.20716857 -183 31 C-179.94664586 26.43202786 -176.53752913 22.1990639 -173 18 C-172.25878906 17.10667969 -171.51757812 16.21335938 -170.75390625 15.29296875 C-128.58910375 -33.63624057 -50.08554169 -40.55632904 0 0 Z " fill="#FBFCFD" transform="translate(202,26)"/>
<path d="M0 0 C5.20146554 4.44773811 10.28153516 9.0395626 15 14 C15.64195312 14.64710937 16.28390625 15.29421875 16.9453125 15.9609375 C40.32400698 40.48005611 48.77467632 72.8247884 48.31640625 105.91796875 C48.01780009 115.24722481 46.46702299 124.01823914 44 133 C43.82339844 133.66741211 43.64679688 134.33482422 43.46484375 135.02246094 C38.34576489 153.83981564 27.47590106 172.843517 13 186 C11.8553125 187.175625 11.8553125 187.175625 10.6875 188.375 C9.800625 189.24125 8.91375 190.1075 8 191 C7.37351563 191.63421875 6.74703125 192.2684375 6.1015625 192.921875 C-18.25540755 216.36441955 -50.87344985 224.62027087 -83.75 224.27734375 C-115.53530659 223.44372598 -145.86483146 208.47728861 -168 186 C-171.17032212 182.45310671 -174.12344302 178.78783267 -177 175 C-177.59296875 174.23429688 -178.1859375 173.46859375 -178.796875 172.6796875 C-188.32245523 159.78956746 -194.74508943 145.38504747 -199 130 C-199.3403125 128.79988281 -199.680625 127.59976563 -200.03125 126.36328125 C-207.65942638 93.69632221 -200.36894617 59.20716857 -183 31 C-179.94664586 26.43202786 -176.53752913 22.1990639 -173 18 C-172.25878906 17.10667969 -171.51757812 16.21335938 -170.75390625 15.29296875 C-128.58910375 -33.63624057 -50.08554169 -40.55632904 0 0 Z M-137 26 C-137.825 26.6909375 -138.65 27.381875 -139.5 28.09375 C-152.18068411 39.07336673 -161.68777441 53.03960795 -167 69 C-167.556875 70.50240234 -167.556875 70.50240234 -168.125 72.03515625 C-174.90799985 92.9258537 -172.74856657 119.36360162 -163 139 C-162.56945312 139.89847656 -162.13890625 140.79695312 -161.6953125 141.72265625 C-149.44071087 165.78183176 -128.51813708 182.0978424 -103.125 190.375 C-79.52295243 197.61296125 -53.13534968 193.37047675 -31.55273438 182.24633789 C-8.91682633 169.81586052 5.53098915 149.75101123 14.2109375 125.8203125 C16.57139906 117.38341524 17.3286933 109.44179588 17.25 100.6875 C17.24178223 99.58027588 17.23356445 98.47305176 17.22509766 97.33227539 C16.92427048 75.36057022 10.30082005 55.92509424 -4 39 C-4.65613281 38.19820312 -5.31226563 37.39640625 -5.98828125 36.5703125 C-20.22933192 19.85595321 -41.20038545 8.14286601 -63 5 C-67.10879154 4.73313331 -71.19620631 4.7129982 -75.3125 4.75 C-76.41972412 4.75821777 -77.52694824 4.76643555 -78.66772461 4.77490234 C-100.61718105 5.0754249 -120.10361451 11.68500674 -137 26 Z " fill="#F7EB03" transform="translate(202,26)"/>
<path d="M0 0 C1.5768457 -0.0309375 1.5768457 -0.0309375 3.18554688 -0.0625 C27.48809038 -0.18199622 50.25777405 12.18531176 67.3125 28.80859375 C85.15180215 47.54529982 92.81426668 70.16103281 92.9375 95.5625 C92.9684375 97.1393457 92.9684375 97.1393457 93 98.74804688 C93.03728015 106.32989798 91.87925779 113.00219619 89.6875 120.25 C89.46835938 120.97566162 89.24921875 121.70132324 89.0234375 122.44897461 C81.85963213 144.74911719 67.98038829 163.27426905 47.6875 175.25 C46.635625 175.87261719 45.58375 176.49523437 44.5 177.13671875 C23.57659266 188.51135411 -2.07640118 192.53002671 -25.3125 186.25 C-50.26465179 178.53786669 -71.60258574 163.20330316 -84.48779297 140.14697266 C-95.34126798 119.47346424 -99.52610676 93.78937828 -93.625 70.875 C-92.9042704 68.64981035 -92.13643277 66.43907627 -91.3125 64.25 C-90.75175781 62.69345703 -90.75175781 62.69345703 -90.1796875 61.10546875 C-80.56028711 36.29251211 -62.31837592 17.63186335 -38.125 6.9375 C-25.20021982 1.66441895 -13.90829984 0.06747508 0 0 Z M-48.3125 14.25 C-49.27671875 14.76046875 -50.2409375 15.2709375 -51.234375 15.796875 C-71.53222882 27.44712246 -83.96797729 47.89378305 -91.41015625 69.42578125 C-97.65628613 92.75435005 -93.65400942 118.67061941 -82.4609375 139.734375 C-78.16461853 147.02613547 -73.19430542 153.19059122 -67.3125 159.25 C-66.70019531 159.93578125 -66.08789062 160.6215625 -65.45703125 161.328125 C-50.67386787 177.34059195 -28.47305111 185.73278681 -7.05297852 186.68969727 C-4.00429794 186.78205886 -1.32320915 186.82490929 1.6875 186.25 C4.13250335 183.8578506 4.13250335 183.8578506 5.6875 181.25 C5.11 181.58 4.5325 181.91 3.9375 182.25 C1.6875 183.25 1.6875 183.25 -2.3125 183.25 C-4.1015625 182.0703125 -4.1015625 182.0703125 -5.9375 180.375 C-6.6284375 179.74078125 -7.319375 179.1065625 -8.03125 178.453125 C-11.4038789 175.19599709 -14.70351515 171.86907014 -17.99609375 168.53125 C-19.78060412 166.77382326 -21.53945644 165.17252239 -23.5 163.625 C-27.20851565 160.49336456 -30.18164498 156.94688531 -33.3125 153.25 C-34.26299447 152.17200431 -35.21492097 151.09527024 -36.16796875 150.01953125 C-37.17484758 148.86750939 -38.18135747 147.71516498 -39.1875 146.5625 C-39.92069458 145.74265625 -39.92069458 145.74265625 -40.66870117 144.90625 C-45.39564937 139.43075038 -45.39564937 139.43075038 -45.3125 135.25 C-43.44611275 132.50252912 -41.08137318 130.29996792 -38.69140625 128.0078125 C-37.99869125 127.32121552 -37.30597626 126.63461853 -36.5922699 125.92721558 C-34.36683202 123.72875639 -32.12121742 121.55220292 -29.875 119.375 C-28.3951703 117.91669686 -26.91663865 116.45707525 -25.43945312 114.99609375 C-17.02100573 106.70643567 -8.42816722 98.77042545 0.6875 91.25 C5.11990459 95.6575185 9.54888646 100.06843892 13.97485352 104.48242188 C15.47816955 105.98073707 16.98238536 107.47815007 18.48754883 108.97460938 C20.6620947 111.13690225 22.8332871 113.30251613 25.00390625 115.46875 C25.66773819 116.12742065 26.33157013 116.78609131 27.01551819 117.46472168 C30.89124132 121.3399875 34.57970492 125.32323045 38.15171814 129.48059082 C40.23138384 131.87662093 42.34485781 134.10815571 44.6875 136.25 C45.3475 136.25 46.0075 136.25 46.6875 136.25 C48.59374284 133.6903186 48.59374284 133.6903186 50.4375 130.5 C51.09234375 129.43265625 51.7471875 128.3653125 52.421875 127.265625 C54.01162564 124.44039617 54.01162564 124.44039617 52.96191406 122.29370117 C51.64139018 120.17605646 50.22731046 118.3937913 48.5625 116.53515625 C47.93988281 115.83922363 47.31726563 115.14329102 46.67578125 114.42626953 C43.37782236 110.81649478 40.04537146 107.24156893 36.6875 103.6875 C36.01460937 102.97142578 35.34171875 102.25535156 34.6484375 101.51757812 C31.44532557 98.11968236 28.2161957 94.75895347 24.90234375 91.46875 C22.57858611 89.16112499 20.36143749 86.81880372 18.25 84.3125 C15.22270232 80.79539236 12.01510921 77.52938982 8.6796875 74.3046875 C6.19020305 71.73710158 3.96726339 69.00586608 1.6875 66.25 C15.53552795 66.67273416 28.95595014 68.09710518 42.625 70.3125 C45.29185073 70.73711774 47.9591282 71.15870148 50.62709045 71.57627869 C52.26391737 71.83320399 53.90007246 72.0944617 55.53538513 72.3608551 C59.34604611 72.96617512 62.80523758 73.25 66.6875 73.25 C66.6875 60.38 66.6875 47.51 66.6875 34.25 C67.6775 33.755 67.6775 33.755 68.6875 33.25 C53.57449364 17.36123096 33.32253962 3.382941 10.61987305 2.07299805 C-11.52313545 1.67631722 -28.6605405 3.28398945 -48.3125 14.25 Z " fill="#FBFCFD" transform="translate(126.3125,30.75)"/>
<path d="M0 0 C44.22 0 88.44 0 134 0 C134 13.2 134 26.4 134 40 C125.17660237 38.8970753 116.42750086 37.78910683 107.64941406 36.45214844 C95.08588158 34.55011407 82.70243548 33.29268285 70 33 C73.98032834 37.26858016 77.9624251 41.53550066 81.94628906 45.80078125 C83.30538122 47.25616667 84.66411075 48.71189081 86.02246094 50.16796875 C87.99291827 52.27979125 89.96503696 54.39005093 91.9375 56.5 C92.53892822 57.14517578 93.14035645 57.79035156 93.76000977 58.45507812 C97.26419348 62.19984469 100.8414784 65.85386955 104.47973633 69.46826172 C106.18800097 71.18941996 107.80106281 72.96791223 109.375 74.8125 C113.51055573 79.60748375 117.75468126 84.30223233 122 89 C120.8335158 92.80470079 119.55623932 96.04573999 117.375 99.375 C116.92898437 100.06335938 116.48296875 100.75171875 116.0234375 101.4609375 C115.68570313 101.96882813 115.34796875 102.47671875 115 103 C111.53891463 101.51556158 109.31486374 99.55369767 106.6875 96.875 C105.96949219 96.15054688 105.25148438 95.42609375 104.51171875 94.6796875 C102.62497079 92.66676511 100.83329562 90.63694879 99.046875 88.5390625 C93.54803758 82.2146206 87.506341 76.40113752 81.5625 70.5 C80.3415631 69.28408886 79.12085808 68.06794484 77.90039062 66.8515625 C74.93625987 63.89835034 71.96901042 60.94830602 69 58 C64.24916074 62.01654493 59.605091 66.12441558 55.0625 70.375 C54.40443359 70.99060791 53.74636719 71.60621582 53.06835938 72.24047852 C42.47030588 82.24269122 32.26146615 92.65499236 22 103 C18.06477013 99.11020882 15.2863239 96.02991258 13 91 C14.16520148 87.47614825 16.49747505 85.29276608 19.125 82.75 C19.84945312 82.04359375 20.57390625 81.3371875 21.3203125 80.609375 C22.15175781 79.81273437 22.15175781 79.81273437 23 79 C23.66 79.66 24.32 80.32 25 81 C24.01 81.99 24.01 81.99 23 83 C22.75787127 84.98128508 22.75787127 84.98128508 22.875 87.125 C22.91625 88.40375 22.9575 89.6825 23 91 C25.64 91 28.28 91 31 91 C31.99 88.69 32.98 86.38 34 84 C34.99 84.99 34.99 84.99 36 86 C37.23520961 84.53110209 38.4684096 83.0604281 39.6875 81.578125 C40.70007622 80.36062264 41.74911711 79.17338802 42.8125 78 C44.46475637 75.21725243 44.34498879 73.17389689 44 70 C42.23863645 67.81668311 42.23863645 67.81668311 40.0546875 67.8046875 C37.02734375 67.90234375 37.02734375 67.90234375 34 68 C39.56687839 61.27824246 45.7085136 55.2329006 51.92382812 49.11523438 C56.83970362 44.2464383 61.50364951 39.25720603 66 34 C66.33 33.67 66.66 33.34 67 33 C54.54354767 32.53817479 42.48412886 33.0479654 30.125 34.75 C28.96331299 34.90694336 27.80162598 35.06388672 26.60473633 35.22558594 C17.46740036 36.56460627 9.06750429 38.73312393 0 41 C0 27.47 0 13.94 0 0 Z " fill="#FEEC01" transform="translate(58,64)"/>
<path d="M0 0 C5.20146554 4.44773811 10.28153516 9.0395626 15 14 C15.64195312 14.64710937 16.28390625 15.29421875 16.9453125 15.9609375 C40.32400698 40.48005611 48.77467632 72.8247884 48.31640625 105.91796875 C48.01780009 115.24722481 46.46702299 124.01823914 44 133 C43.82339844 133.66741211 43.64679688 134.33482422 43.46484375 135.02246094 C38.34576489 153.83981564 27.47590106 172.843517 13 186 C11.8553125 187.175625 11.8553125 187.175625 10.6875 188.375 C9.800625 189.24125 8.91375 190.1075 8 191 C7.37351563 191.63421875 6.74703125 192.2684375 6.1015625 192.921875 C-18.25540755 216.36441955 -50.87344985 224.62027087 -83.75 224.27734375 C-115.53530659 223.44372598 -145.86483146 208.47728861 -168 186 C-171.17032212 182.45310671 -174.12344302 178.78783267 -177 175 C-177.59296875 174.23429688 -178.1859375 173.46859375 -178.796875 172.6796875 C-188.32245523 159.78956746 -194.74508943 145.38504747 -199 130 C-199.3403125 128.79988281 -199.680625 127.59976563 -200.03125 126.36328125 C-207.65942638 93.69632221 -200.36894617 59.20716857 -183 31 C-179.94664586 26.43202786 -176.53752913 22.1990639 -173 18 C-172.25878906 17.10667969 -171.51757812 16.21335938 -170.75390625 15.29296875 C-128.58910375 -33.63624057 -50.08554169 -40.55632904 0 0 Z M-154 8 C-154.94359375 8.77988281 -155.8871875 9.55976562 -156.859375 10.36328125 C-177.84009593 28.46952487 -189.59903464 53.21675126 -195 80 C-195.19335938 80.90363281 -195.38671875 81.80726562 -195.5859375 82.73828125 C-199.42572939 112.9856985 -192.05990359 144.34780855 -173.8125 168.94921875 C-171.60609103 171.69573825 -169.32255223 174.35140491 -167 177 C-166.34902344 177.80695313 -165.69804687 178.61390625 -165.02734375 179.4453125 C-147.67647197 200.23961355 -119.21236743 215.0692332 -92.1875 217.625 C-77.82402976 218.71131288 -64.0280441 218.50960177 -50 215 C-48.97011963 214.75056641 -48.97011963 214.75056641 -47.91943359 214.49609375 C-36.84360975 211.74939117 -26.94454617 207.56960956 -17 202 C-16.02546875 201.45601562 -15.0509375 200.91203125 -14.046875 200.3515625 C13.78531888 183.66852231 31.51331672 156.17554713 39.48046875 125.19506836 C46.66020229 94.86001937 40.91998331 63.4232417 25.12255859 36.78613281 C21.82405442 31.53779515 17.96095409 26.75687579 14 22 C12.93845703 20.69095703 12.93845703 20.69095703 11.85546875 19.35546875 C-7.05316213 -2.92093312 -37.0212122 -17.48953817 -66 -20 C-98.68477933 -21.86874044 -128.86231962 -13.22225634 -154 8 Z " fill="#F4F7F9" transform="translate(202,26)"/>
<path d="M0 0 C4.64812791 3.88749954 9.06788527 7.91881872 13.34375 12.2109375 C13.91653687 12.78276764 14.48932373 13.35459778 15.07946777 13.9437561 C16.28060622 15.14421938 17.48050426 16.34592495 18.67919922 17.54882812 C20.49205779 19.36703437 22.31018328 21.17984947 24.12890625 22.9921875 C29.96212643 28.82195841 35.71687558 34.65794658 41 41 C41.75108032 41.89307861 41.75108032 41.89307861 42.51733398 42.80419922 C43.68433708 44.19770163 44.84329714 45.59793592 46 47 C45.01 48.65 44.02 50.3 43 52 C39.24623848 50.74874616 38.75926711 49.4347596 37 46 C37 45.34 37 44.68 37 44 C34.08511023 46.6234008 32.11496102 49.71816394 30 53 C33.63 53 37.26 53 41 53 C38.07594555 57.57708286 34.86452372 61.70767412 31.3125 65.8125 C30.78430664 66.42488525 30.25611328 67.03727051 29.71191406 67.66821289 C23.00100571 75.38088569 15.78572881 82.38055445 8 89 C6.66662751 90.14578777 5.33329198 91.29161854 4 92.4375 C3.01 93.283125 2.02 94.12875 1 95 C-2.70620154 93.72067768 -5.02579877 92.3320259 -7.7421875 89.515625 C-8.41636719 88.82726562 -9.09054688 88.13890625 -9.78515625 87.4296875 C-10.47480469 86.71039063 -11.16445312 85.99109375 -11.875 85.25 C-16.27576892 80.70780751 -20.6759788 76.32804594 -25.52587891 72.26513672 C-27.26321221 70.77410307 -28.77331077 69.18599741 -30.25 67.4375 C-30.81460938 66.76976562 -31.37921875 66.10203125 -31.9609375 65.4140625 C-32.63382813 64.61742187 -33.30671875 63.82078125 -34 63 C-34.94907549 61.92320354 -35.89971354 60.84778311 -36.8515625 59.7734375 C-37.85973184 58.6201035 -38.86754373 57.46645693 -39.875 56.3125 C-40.36387695 55.76585693 -40.85275391 55.21921387 -41.35644531 54.65600586 C-46.10276879 49.1579303 -46.10276879 49.1579303 -46 45 C-44.06230724 42.17856013 -41.62179908 39.9031 -39.16015625 37.5390625 C-38.08778969 36.47587296 -38.08778969 36.47587296 -36.99375916 35.39120483 C-34.69700148 33.12142928 -32.38003801 30.87353361 -30.0625 28.625 C-28.53449331 27.11851909 -27.00778453 25.61072053 -25.48242188 24.1015625 C-19.37529014 18.0849824 -13.2646405 12.1362023 -6.76048279 6.54647827 C-4.39253112 4.46637511 -2.19354178 2.26208996 0 0 Z " fill="#0377BF" transform="translate(126,121)"/>
<path d="M0 0 C0.98845917 0.00506058 0.98845917 0.00506058 1.99688721 0.01022339 C12.01082761 0.08444682 20.76014296 0.67828938 30.125 4.4375 C30.78097168 4.68951172 31.43694336 4.94152344 32.11279297 5.20117188 C47.08643975 11.00280784 60.22333566 19.55177244 70.125 32.4375 C69.465 32.4375 68.805 32.4375 68.125 32.4375 C68.125 45.3075 68.125 58.1775 68.125 71.4375 C67.795 71.4375 67.465 71.4375 67.125 71.4375 C67.125 58.2375 67.125 45.0375 67.125 31.4375 C22.905 31.4375 -21.315 31.4375 -66.875 31.4375 C-66.875 38.6975 -66.875 45.9575 -66.875 53.4375 C-67.205 53.4375 -67.535 53.4375 -67.875 53.4375 C-70.75809492 32.47362098 -70.75809492 32.47362098 -66.984375 26.77734375 C-64.16267436 23.91026489 -61.22309069 21.62760443 -57.875 19.4375 C-56.77653043 18.64092986 -55.68018427 17.84142365 -54.5859375 17.0390625 C-48.6840765 12.86457545 -42.39398358 9.53298174 -35.8125 6.5625 C-34.91301636 6.15112793 -34.91301636 6.15112793 -33.99536133 5.73144531 C-23.01221574 1.04662232 -11.83805389 -0.0959189 0 0 Z " fill="#FCFDFB" transform="translate(124.875,32.5625)"/>
<path d="M0 0 C-10.4764719 12.2420477 -21.54632451 23.66673352 -33 35 C-31.88496094 34.97679687 -30.76992187 34.95359375 -29.62109375 34.9296875 C-26 35 -26 35 -24.0625 36.125 C-22.48891696 38.90191125 -22.61579101 40.86229327 -23 44 C-24.125 45.9375 -24.125 45.9375 -26 48 C-26.95845119 49.14573475 -27.91677236 50.29157828 -28.875 51.4375 C-29.91519254 52.62629148 -30.95681162 53.81383656 -32 55 C-32.825 55.969375 -33.65 56.93875 -34.5 57.9375 C-37 60 -37 60 -40.125 60.5 C-43 60 -43 60 -44.875 58.875 C-46.51151479 56.14747535 -46.32502803 54.12026907 -46 51 C-45.34 50.01 -44.68 49.02 -44 48 C-45.1055189 48.93590504 -46.20935453 49.87379858 -47.3125 50.8125 C-48.23482422 51.59560547 -48.23482422 51.59560547 -49.17578125 52.39453125 C-51.0143273 53.96301245 -51.0143273 53.96301245 -52.60546875 55.69921875 C-54 57 -54 57 -56 57 C-62.7555262 41.63063132 -68.91732808 26.12345742 -68 9 C-62.23759123 6.68315524 -56.65606944 5.10660464 -50.5625 3.9375 C-49.68634033 3.76831055 -48.81018066 3.59912109 -47.9074707 3.42480469 C-31.83244774 0.40336986 -16.35713666 -0.28190743 0 0 Z " fill="#0378BE" transform="translate(126,96)"/>
<path d="M0 0 C3.68920169 0.19941631 5.42681415 2.20315765 7.8059082 4.84716797 C8.2824585 5.39260254 8.75900879 5.93803711 9.25 6.5 C10.31011406 7.68066159 11.37137435 8.86029469 12.43359375 10.0390625 C13.00319824 10.67489258 13.57280273 11.31072266 14.15966797 11.96582031 C17.49277512 15.65001357 20.90507667 19.25967148 24.3125 22.875 C24.96959961 23.57560547 25.62669922 24.27621094 26.30371094 24.99804688 C29.97181963 28.89761119 33.70368072 32.71736571 37.50170898 36.49023438 C39.20245869 38.20400921 40.8079065 39.97593275 42.375 41.8125 C46.51055573 46.60748375 50.75468126 51.30223233 55 56 C53.8335158 59.80470079 52.55623932 63.04573999 50.375 66.375 C49.92898437 67.06335938 49.48296875 67.75171875 49.0234375 68.4609375 C48.68570313 68.96882813 48.34796875 69.47671875 48 70 C44.53891463 68.51556158 42.31486374 66.55369767 39.6875 63.875 C38.96949219 63.15054688 38.25148438 62.42609375 37.51171875 61.6796875 C35.62497079 59.66676511 33.83329562 57.63694879 32.046875 55.5390625 C26.54803758 49.2146206 20.506341 43.40113752 14.5625 37.5 C13.3415631 36.28408886 12.12085808 35.06794484 10.90039062 33.8515625 C7.93625987 30.89835034 4.96901042 27.94830602 2 25 C-2.75083926 29.01654493 -7.394909 33.12441558 -11.9375 37.375 C-12.92459961 38.29841187 -12.92459961 38.29841187 -13.93164062 39.24047852 C-24.52969412 49.24269122 -34.73853385 59.65499236 -45 70 C-48.93522987 66.11020882 -51.7136761 63.02991258 -54 58 C-52.83479852 54.47614825 -50.50252495 52.29276608 -47.875 49.75 C-47.15054688 49.04359375 -46.42609375 48.3371875 -45.6796875 47.609375 C-45.12539062 47.07828125 -44.57109375 46.5471875 -44 46 C-43.34 46.66 -42.68 47.32 -42 48 C-42.66 48.66 -43.32 49.32 -44 50 C-44.24212873 51.98128508 -44.24212873 51.98128508 -44.125 54.125 C-44.063125 56.043125 -44.063125 56.043125 -44 58 C-41.36 58 -38.72 58 -36 58 C-35.01 55.69 -34.02 53.38 -33 51 C-32.34 51.66 -31.68 52.32 -31 53 C-29.76479039 51.53110209 -28.5315904 50.0604281 -27.3125 48.578125 C-26.29992378 47.36062264 -25.25088289 46.17338802 -24.1875 45 C-22.53524363 42.21725243 -22.65501121 40.17389689 -23 37 C-24.76136355 34.81668311 -24.76136355 34.81668311 -26.9453125 34.8046875 C-29.97265625 34.90234375 -29.97265625 34.90234375 -33 35 C-27.43312161 28.27824246 -21.2914864 22.2329006 -15.07617188 16.11523438 C-10.16029638 11.2464383 -5.49635049 6.25720603 -1 1 C-0.67 0.67 -0.34 0.34 0 0 Z " fill="#F2EB09" transform="translate(125,97)"/>
<path d="M0 0 C14.20742985 0.03482213 28.04660226 1.85935948 42.0625 4 C42.96492432 4.13746643 43.86734863 4.27493286 44.79711914 4.41656494 C47.3979891 4.81507772 49.99804684 5.21835029 52.59765625 5.625 C53.77933128 5.8094014 53.77933128 5.8094014 54.98487854 5.99752808 C58.36723601 6.53634767 61.68636435 7.13637885 65 8 C65.88704944 25.14962244 61.69298786 41.61402427 54 57 C50.79527216 55.61665485 48.96654243 54.08971126 46.75 51.41015625 C42.97157715 46.94795165 39.01488562 42.68697185 35 38.4375 C34.32710937 37.72142578 33.65421875 37.00535156 32.9609375 36.26757812 C29.75782557 32.86968236 26.5286957 29.50895347 23.21484375 26.21875 C20.89108611 23.91112499 18.67393749 21.56880372 16.5625 19.0625 C13.55046395 15.55635467 10.34553923 12.33176645 6.9921875 9.15234375 C4.34546234 6.29284265 2.22122056 3.2011708 0 0 Z " fill="#0277BF" transform="translate(127,96)"/>
<path d="M0 0 C24.67496117 21.69067383 38.89690956 50.61551509 41.6484375 83.328125 C43.62405158 116.98288408 31.76274377 148.17124639 9.6484375 173.328125 C-4.23012513 188.78597234 -21.46905896 199.55776125 -41.0390625 206.203125 C-42.30290771 206.63286621 -42.30290771 206.63286621 -43.59228516 207.07128906 C-55.27801089 210.83299276 -66.55840983 211.64982399 -78.7890625 211.578125 C-80.76229492 211.58972656 -80.76229492 211.58972656 -82.77539062 211.6015625 C-94.93097521 211.57750395 -106.21632666 210.15695492 -117.7265625 206.203125 C-118.62721436 205.89528076 -119.52786621 205.58743652 -120.45581055 205.27026367 C-152.09197211 194.09048281 -176.01464922 170.27875467 -190.3515625 140.328125 C-190.82335937 139.35230469 -191.29515625 138.37648437 -191.78125 137.37109375 C-203.97923894 109.07327468 -203.25128287 75.64606357 -192.49951172 47.06298828 C-180.4190092 17.59755036 -156.8158101 -7.45153477 -127.4296875 -20.07421875 C-83.78256506 -37.71258761 -36.03227565 -30.35383679 0 0 Z M-156.3515625 0.328125 C-157.29515625 1.10800781 -158.23875 1.88789062 -159.2109375 2.69140625 C-180.19165843 20.79764987 -191.95059714 45.54487626 -197.3515625 72.328125 C-197.54492188 73.23175781 -197.73828125 74.13539062 -197.9375 75.06640625 C-201.77729189 105.3138235 -194.41146609 136.67593355 -176.1640625 161.27734375 C-173.95765353 164.02386325 -171.67411473 166.67952991 -169.3515625 169.328125 C-168.70058594 170.13507813 -168.04960937 170.94203125 -167.37890625 171.7734375 C-150.02803447 192.56773855 -121.56392993 207.3973582 -94.5390625 209.953125 C-80.17559226 211.03943788 -66.3796066 210.83772677 -52.3515625 207.328125 C-51.32168213 207.07869141 -51.32168213 207.07869141 -50.27099609 206.82421875 C-39.19517225 204.07751617 -29.29610867 199.89773456 -19.3515625 194.328125 C-18.37703125 193.78414062 -17.4025 193.24015625 -16.3984375 192.6796875 C11.43375638 175.99664731 29.16175422 148.50367213 37.12890625 117.52319336 C44.30863979 87.18814437 38.56842081 55.7513667 22.77099609 29.11425781 C19.47249192 23.86592015 15.60939159 19.08500079 11.6484375 14.328125 C10.58689453 13.01908203 10.58689453 13.01908203 9.50390625 11.68359375 C-9.40472463 -10.59280812 -39.3727747 -25.16141317 -68.3515625 -27.671875 C-101.03634183 -29.54061544 -131.21388212 -20.89413134 -156.3515625 0.328125 Z " fill="#186EC6" transform="translate(204.3515625,33.671875)"/>
<path d="M0 0 C1.5768457 -0.0309375 1.5768457 -0.0309375 3.18554688 -0.0625 C27.48809038 -0.18199622 50.25777405 12.18531176 67.3125 28.80859375 C85.15180215 47.54529982 92.81426668 70.16103281 92.9375 95.5625 C92.9684375 97.1393457 92.9684375 97.1393457 93 98.74804688 C93.03728015 106.32989798 91.87925779 113.00219619 89.6875 120.25 C89.46835938 120.97566162 89.24921875 121.70132324 89.0234375 122.44897461 C81.85963213 144.74911719 67.98038829 163.27426905 47.6875 175.25 C46.635625 175.87261719 45.58375 176.49523437 44.5 177.13671875 C23.57659266 188.51135411 -2.07640118 192.53002671 -25.3125 186.25 C-50.26465179 178.53786669 -71.60258574 163.20330316 -84.48779297 140.14697266 C-95.34126798 119.47346424 -99.52610676 93.78937828 -93.625 70.875 C-92.9042704 68.64981035 -92.13643277 66.43907627 -91.3125 64.25 C-90.75175781 62.69345703 -90.75175781 62.69345703 -90.1796875 61.10546875 C-80.56028711 36.29251211 -62.31837592 17.63186335 -38.125 6.9375 C-25.20021982 1.66441895 -13.90829984 0.06747508 0 0 Z M-48.3125 14.25 C-49.27671875 14.76046875 -50.2409375 15.2709375 -51.234375 15.796875 C-71.53222882 27.44712246 -83.96797729 47.89378305 -91.41015625 69.42578125 C-97.65628613 92.75435005 -93.65400942 118.67061941 -82.4609375 139.734375 C-78.16461853 147.02613547 -73.19430542 153.19059122 -67.3125 159.25 C-66.70019531 159.93578125 -66.08789062 160.6215625 -65.45703125 161.328125 C-50.54883302 177.47602415 -28.42991983 185.59262503 -6.93359375 186.59765625 C19.24836942 187.38359596 42.24967727 180.49880955 61.78125 162.4296875 C78.41452138 146.57674243 90.27073331 124.99009863 90.890625 101.66015625 C91.25100528 72.8637317 84.95688558 50.38962754 64.6875 29.25 C63.80771484 28.29287109 63.80771484 28.29287109 62.91015625 27.31640625 C50.22140986 13.91111889 29.16665628 3.1431467 10.61987305 2.07299805 C-11.52313545 1.67631722 -28.6605405 3.28398945 -48.3125 14.25 Z " fill="#2076C0" transform="translate(126.3125,30.75)"/>
<path d="M0 0 C5.13143108 1.31111455 7.79189819 3.32595486 11.4375 7.125 C11.91558105 7.6192749 12.39366211 8.1135498 12.88623047 8.62280273 C16.1030609 11.97380357 19.21330282 15.41036777 22.23046875 18.94140625 C25.74355948 23.02837935 29.38674332 27.00165701 33 31 C31.8335158 34.80470079 30.55623932 38.04573999 28.375 41.375 C27.92898437 42.06335938 27.48296875 42.75171875 27.0234375 43.4609375 C26.68570313 43.96882813 26.34796875 44.47671875 26 45 C22.53891463 43.51556158 20.31486374 41.55369767 17.6875 38.875 C16.96949219 38.15054688 16.25148437 37.42609375 15.51171875 36.6796875 C13.56758944 34.60554643 11.70883487 32.50749182 9.859375 30.3515625 C5.34143946 25.15529669 0.45199091 20.34372894 -4.4375 15.5 C-5.35982422 14.5821875 -6.28214844 13.664375 -7.23242188 12.71875 C-9.48599899 10.47684945 -11.74189075 8.237334 -14 6 C-13.67 5.34 -13.34 4.68 -13 4 C-12.195625 4.495 -12.195625 4.495 -11.375 5 C-8.4070908 6.24964598 -6.19200721 6.27756584 -3 6 C-0.8614515 3.8614515 -0.57344937 2.86724686 0 0 Z " fill="#F7ED05" transform="translate(147,122)"/>
<path d="M0 0 C0.66 0.33 1.32 0.66 2 1 C1.30132812 1.67546875 0.60265625 2.3509375 -0.1171875 3.046875 C-1.02726562 3.93890625 -1.93734375 4.8309375 -2.875 5.75 C-3.77992187 6.63171875 -4.68484375 7.5134375 -5.6171875 8.421875 C-7.66089078 10.63309494 -8.83515753 12.27794708 -10 15 C-10.33 15.33 -10.66 15.66 -11 16 C-11.29718836 18.82328946 -11.42837659 20.40027277 -9.75 22.75 C-7.83141429 24.12041836 -6.30908032 24.6018827 -4 25 C-4.58344447 28.42541583 -5.68841054 30.05698381 -8.14282227 32.48339844 C-8.80343155 33.14378113 -9.46404083 33.80416382 -10.14466858 34.48455811 C-10.86134201 35.18574768 -11.57801544 35.88693726 -12.31640625 36.609375 C-13.04746078 37.33618469 -13.77851532 38.06299438 -14.53172302 38.81182861 C-16.86837157 41.13168401 -19.21523484 43.440892 -21.5625 45.75 C-23.14847036 47.32092443 -24.73376543 48.89253094 -26.31835938 50.46484375 C-30.20443822 54.31784484 -34.09895543 58.16215519 -38 62 C-41.93522987 58.11020882 -44.7136761 55.02991258 -47 50 C-45.83479852 46.47614825 -43.50252495 44.29276608 -40.875 41.75 C-40.15054688 41.04359375 -39.42609375 40.3371875 -38.6796875 39.609375 C-38.12539062 39.07828125 -37.57109375 38.5471875 -37 38 C-36.34 38.66 -35.68 39.32 -35 40 C-35.66 40.66 -36.32 41.32 -37 42 C-37.24212873 43.98128508 -37.24212873 43.98128508 -37.125 46.125 C-37.063125 48.043125 -37.063125 48.043125 -37 50 C-34.36 50 -31.72 50 -29 50 C-28.01 47.69 -27.02 45.38 -26 43 C-25.34 43.66 -24.68 44.32 -24 45 C-22.76479039 43.53110209 -21.5315904 42.0604281 -20.3125 40.578125 C-19.29992378 39.36062264 -18.25088289 38.17338802 -17.1875 37 C-15.53524363 34.21725243 -15.65501121 32.17389689 -16 29 C-17.76136355 26.81668311 -17.76136355 26.81668311 -19.9453125 26.8046875 C-22.97265625 26.90234375 -22.97265625 26.90234375 -26 27 C-20.89551178 20.81865131 -15.31705058 15.20177122 -9.625 9.5625 C-8.69816406 8.64017578 -7.77132812 7.71785156 -6.81640625 6.76757812 C-4.54654154 4.50941375 -2.27436462 2.25363058 0 0 Z " fill="#F8EE05" transform="translate(118,105)"/>
<path d="M0 0 C1.5 1.375 1.5 1.375 3 3 C3 3.66 3 4.32 3 5 C1.68 5.33 0.36 5.66 -1 6 C-0.2236068 9.0745356 -0.2236068 9.0745356 2 11 C0.02 11.99 0.02 11.99 -2 13 C-2 11.35 -2 9.7 -2 8 C-3.32 8.33 -4.64 8.66 -6 9 C-5.22520264 11.99152582 -5.22520264 11.99152582 -4 15 C-3.01 15.33 -2.02 15.66 -1 16 C-1.66 16.66 -2.32 17.32 -3 18 C0.98196457 19.05404945 3.98195309 18.84098656 8 18 C8 17.34 8 16.68 8 16 C8.66 16 9.32 16 10 16 C11.83691257 19.78187881 12.15837626 21.94568308 11 26 C8 27 8 27 5 27 C4.67 28.65 4.34 30.3 4 32 C6.39719432 32.67958603 6.39719432 32.67958603 9 33 C9.66 32.34 10.32 31.68 11 31 C14.53571429 31.53571429 14.53571429 31.53571429 16 33 C16.04063832 34.66617115 16.042721 36.33388095 16 38 C14.515 38.495 14.515 38.495 13 39 C13.33 37.35 13.66 35.7 14 34 C13.34 34 12.68 34 12 34 C11.7525 34.969375 11.505 35.93875 11.25 36.9375 C10 40 10 40 8.125 41 C5.58344417 41 4.21530812 40.18149767 2 39 C1.01 39.495 1.01 39.495 0 40 C-0.20157715 39.47567383 -0.4031543 38.95134766 -0.61083984 38.41113281 C-1.5301742 36.02329252 -2.45255606 33.63664066 -3.375 31.25 C-3.69210938 30.425 -4.00921875 29.6 -4.3359375 28.75 C-4.6453125 27.95078125 -4.9546875 27.1515625 -5.2734375 26.328125 C-5.55622559 25.5949707 -5.83901367 24.86181641 -6.13037109 24.10644531 C-6.96394156 21.97804323 -6.96394156 21.97804323 -8.10791016 19.97949219 C-9 18 -9 18 -9 14 C-8.01 14 -7.02 14 -6 14 C-6.66 13.05125 -7.32 12.1025 -8 11.125 C-10 8 -10 8 -10 6 C-9.071875 5.87625 -8.14375 5.7525 -7.1875 5.625 C-3.86074765 5.18466918 -3.86074765 5.18466918 -1 3 C-0.67 2.01 -0.34 1.02 0 0 Z " fill="#F2EA05" transform="translate(217,63)"/>
<path d="M0 0 C2.4375 0.6875 2.4375 0.6875 5 2 C5.8125 4.625 5.8125 4.625 6 7 C5.67 7 5.34 7 5 7 C4.67 8.65 4.34 10.3 4 12 C4.66 12 5.32 12 6 12 C6 11.34 6 10.68 6 10 C9.3 9.67 12.6 9.34 16 9 C16.33 9.66 16.66 10.32 17 11 C16.01 11.495 16.01 11.495 15 12 C15.33 12.99 15.66 13.98 16 15 C16 16.32 16 17.64 16 19 C14.54176788 19.0270043 13.08339325 19.04639787 11.625 19.0625 C10.81289062 19.07410156 10.00078125 19.08570312 9.1640625 19.09765625 C7 19 7 19 5 18 C5 19.98 5 21.96 5 24 C5.66 24 6.32 24 7 24 C7 23.34 7 22.68 7 22 C9.97 22 12.94 22 16 22 C15.67 23.65 15.34 25.3 15 27 C15.99 27.33 16.98 27.66 18 28 C14.25 31 14.25 31 12 31 C11.505 32.485 11.505 32.485 11 34 C9.35 34 7.7 34 6 34 C5.34 35.32 4.68 36.64 4 38 C3.34 38 2.68 38 2 38 C1.67 38.66 1.34 39.32 1 40 C0.97494385 39.23969482 0.9498877 38.47938965 0.92407227 37.69604492 C0.80678371 34.19307983 0.68466943 30.69029814 0.5625 27.1875 C0.52318359 25.99189453 0.48386719 24.79628906 0.44335938 23.56445312 C0.21230297 17.04155315 -0.15782465 10.58903719 -0.89868164 4.1027832 C-1 2 -1 2 0 0 Z " fill="#F1E906" transform="translate(218,101)"/>
<path d="M0 0 C1.74707504 2.75853953 1.57953417 4.67338764 1.1875 7.875 C0.0625 9.8125 0.0625 9.8125 -1.8125 11.875 C-2.77095119 13.02073475 -3.72927236 14.16657828 -4.6875 15.3125 C-5.72769254 16.50129148 -6.76931162 17.68883656 -7.8125 18.875 C-8.6375 19.844375 -9.4625 20.81375 -10.3125 21.8125 C-12.8125 23.875 -12.8125 23.875 -15.9375 24.375 C-18.8125 23.875 -18.8125 23.875 -20.6875 22.75 C-22.32401479 20.02247535 -22.13752803 17.99526907 -21.8125 14.875 C-21.1525 13.885 -20.4925 12.895 -19.8125 11.875 C-19.68488281 11.23949219 -19.55726562 10.60398438 -19.42578125 9.94921875 C-18.59066087 7.12470334 -17.08234016 5.74666012 -15 3.6875 C-14.31292969 2.99269531 -13.62585938 2.29789063 -12.91796875 1.58203125 C-9.32042963 -1.33471197 -4.13488726 -2.56648175 0 0 Z " fill="#F7ED05" transform="translate(101.8125,132.125)"/>
<path d="M0 0 C8.82098847 7.21041473 8.82098847 7.21041473 11 11 C10.18056875 16.26777234 6.90968532 20.62436635 4 25 C0.4249647 23.48183433 -1.8997513 21.36847779 -4.625 18.625 C-5.40101563 17.85414063 -6.17703125 17.08328125 -6.9765625 16.2890625 C-8.79404329 14.2329935 -9.93523887 12.50734071 -11 10 C-7.79843579 5.00932638 -5.68357313 2.24699403 0 0 Z " fill="#F6EC08" transform="translate(169,142)"/>
<path d="M0 0 C0.99 0.33 1.98 0.66 3 1 C3 3.31 3 5.62 3 8 C3.66 8 4.32 8 5 8 C5 7.34 5 6.68 5 6 C7.97 6 10.94 6 14 6 C13.67 7.65 13.34 9.3 13 11 C13.99 11.33 14.98 11.66 16 12 C12.25 15 12.25 15 10 15 C9.67 15.99 9.34 16.98 9 18 C7.35 18 5.7 18 4 18 C3.34 19.32 2.68 20.64 2 22 C1.34 22 0.68 22 0 22 C-0.33 22.66 -0.66 23.32 -1 24 C-0.67 16.08 -0.34 8.16 0 0 Z " fill="#FCF000" transform="translate(220,117)"/>
<path d="M0 0 C0.33 0 0.66 0 1 0 C1.02578125 1.21171875 1.0515625 2.4234375 1.078125 3.671875 C1.94576454 32.65162 9.72760595 60.72688035 29.3125 82.79296875 C31 85 31 85 31 88 C12.85396015 70.95372014 1.12512518 44.65360676 -0.16308594 19.86132812 C-0.3242256 13.23669743 -0.23430404 6.62179268 0 0 Z " fill="#156DC1" transform="translate(5,118)"/>
<path d="M0 0 C0.268125 0.598125 0.53625 1.19625 0.8125 1.8125 C2.03854802 4.07100952 2.93534581 5.47062652 5 7 C7.5 7.5 7.5 7.5 10 7 C12.5048111 5.12139167 12.98700625 4.03898126 14 1 C17.79588866 1.54226981 19.47211993 3.20127563 22 6 C21.67 6.99 21.34 7.98 21 9 C20.05125 9.45375 19.1025 9.9075 18.125 10.375 C14.66795676 12.17266248 13.67459059 13.55778602 12 17 C8.46515392 15.47229641 5.97175059 13.39481316 3.1875 10.75 C2.37667969 10.00234375 1.56585938 9.2546875 0.73046875 8.484375 C-1 6 -1 6 -0.76171875 2.703125 C-0.51035156 1.81109375 -0.25898438 0.9190625 0 0 Z " fill="#FAF203" transform="translate(147,135)"/>
<path d="M0 0 C-0.66 0.66 -1.32 1.32 -2 2 C-3.02738281 1.60167969 -4.05476563 1.20335937 -5.11328125 0.79296875 C-26.63049862 -7.47106001 -47.84663531 -11.39253705 -70.90625 -8.0234375 C-73.43124277 -7.99517266 -74.85371617 -8.72198553 -77 -10 C-49.78485802 -14.00538226 -25.28468419 -11.11614945 0 0 Z " fill="#277DBE" transform="translate(178,16)"/>
<path d="M0 0 C2.56518314 1.03993911 3.79135413 1.61575105 5.3125 3.9375 C5.8125 6.875 5.8125 6.875 5.3125 9.9375 C2.9375 12.3125 2.9375 12.3125 0.3125 13.9375 C-0.3475 13.9375 -1.0075 13.9375 -1.6875 13.9375 C-1.6875 14.5975 -1.6875 15.2575 -1.6875 15.9375 C-2.3475 15.9375 -3.0075 15.9375 -3.6875 15.9375 C-3.77 15.195 -3.8525 14.4525 -3.9375 13.6875 C-4.83183785 10.40826121 -6.28650612 9.26104246 -8.6875 6.9375 C-8.6875 5.9475 -8.6875 4.9575 -8.6875 3.9375 C-3.87668919 -0.09015556 -3.87668919 -0.09015556 0 0 Z " fill="#EFE602" transform="translate(65.6875,31.0625)"/>
<path d="M0 0 C2.3125 1.5 2.3125 1.5 4 4 C4.33165641 6.75853904 4.18638381 9.20424286 4 12 C0.7 12 -2.6 12 -6 12 C-6 12.66 -6 13.32 -6 14 C-6.66 14 -7.32 14 -8 14 C-9.58874657 4.95105215 -9.58874657 4.95105215 -7.375 1.375 C-4.5353244 -0.26902271 -3.22255958 -0.64451192 0 0 Z " fill="#2E2C29" transform="translate(23,128)"/>
<path d="M0 0 C0.66 0 1.32 0 2 0 C2.763125 0.99 3.52625 1.98 4.3125 3 C6.40410509 5.71006864 6.40410509 5.71006864 9.8125 6.375 C10.534375 6.25125 11.25625 6.1275 12 6 C12.33 7.65 12.66 9.3 13 11 C13.99 11 14.98 11 16 11 C15.67 18.92 15.34 26.84 15 35 C14.67 35 14.34 35 14 35 C13.67 30.38 13.34 25.76 13 21 C12.34 21.33 11.68 21.66 11 22 C11 19.69 11 17.38 11 15 C10.34 14.67 9.68 14.34 9 14 C9 13.34 9 12.68 9 12 C5.37 12.33 1.74 12.66 -2 13 C-1.67 11.35 -1.34 9.7 -1 8 C0.65 7.67 2.3 7.34 4 7 C3.525625 6.5875 3.05125 6.175 2.5625 5.75 C0.83733482 3.817815 0.43415125 2.51807725 0 0 Z " fill="#E8E610" transform="translate(16,97)"/>
<path d="M0 0 C0.33 0 0.66 0 1 0 C1.48062124 2.68724704 1.95953496 5.37478033 2.4375 8.0625 C2.57220703 8.81466797 2.70691406 9.56683594 2.84570312 10.34179688 C6.63283426 31.67904788 5.36258053 52.51931912 -2 73 C-2.66 72.67 -3.32 72.34 -4 72 C-3.73445312 70.97261719 -3.46890625 69.94523437 -3.1953125 68.88671875 C-2.83834474 67.48702937 -2.48158527 66.08728687 -2.125 64.6875 C-1.86396484 63.68106445 -1.86396484 63.68106445 -1.59765625 62.65429688 C0.97429912 52.50936181 2.36176928 42.86075481 2.3125 32.375 C2.31193604 31.24578125 2.31137207 30.1165625 2.31079102 28.953125 C2.22134293 20.74027063 1.33325737 13.00604769 -0.44140625 5 C-1 2 -1 2 0 0 Z " fill="#2179C8" transform="translate(241,93)"/>
<path d="M0 0 C0.66 0.66 1.32 1.32 2 2 C1.80126034 3.82754076 1.5873677 5.65432641 1.31054688 7.47167969 C-0.44488415 21.76353792 -0.0111646 37.15836463 4 51 C4.72265625 53.7265625 4.72265625 53.7265625 5 56 C4.34 56.66 3.68 57.32 3 58 C2.34727539 55.66840696 1.70274798 53.33502204 1.0625 51 C0.88009766 50.35160156 0.69769531 49.70320313 0.50976562 49.03515625 C-1.93846354 40.04347821 -2.18221984 31.33973346 -2.1875 22.0625 C-2.19974609 20.93392578 -2.21199219 19.80535156 -2.22460938 18.64257812 C-2.23602949 12.09885122 -1.69678412 6.32437716 0 0 Z " fill="#2278BD" transform="translate(33,101)"/>
<path d="M0 0 C1.8125 1.125 1.8125 1.125 3 3 C3.39310741 6.14485925 3.47555213 8.13281671 1.9375 10.9375 C-1.18142449 12.64787795 -3.65557801 11.80513863 -7 11 C-8.39935013 8.20129973 -8.25265405 6.09501208 -8 3 C-5.90534242 -0.30735407 -3.75951639 -0.56392746 0 0 Z " fill="#0876C1" transform="translate(100,131)"/>
<path d="M0 0 C1.8125 1.125 1.8125 1.125 3 3 C3.39769128 6.18153026 3.55198782 8.12844028 1.8125 10.875 C-0.65507108 12.40659584 -2.14519831 12.42822025 -5 12 C-6.8125 10.875 -6.8125 10.875 -8 9 C-8.39769128 5.81846974 -8.55198782 3.87155972 -6.8125 1.125 C-4.34492892 -0.40659584 -2.85480169 -0.42822025 0 0 Z " fill="#0775C2" transform="translate(157,131)"/>
<path d="M0 0 C1.875 1.1875 1.875 1.1875 3 3 C3.42822025 5.85480169 3.40659584 7.34492892 1.875 9.8125 C-0.87155972 11.55198782 -2.81846974 11.39769128 -6 11 C-7.875 9.8125 -7.875 9.8125 -9 8 C-9.42822025 5.14519831 -9.40659584 3.65507108 -7.875 1.1875 C-5.12844028 -0.55198782 -3.18153026 -0.39769128 0 0 Z " fill="#0775C2" transform="translate(144,118)"/>
<path d="M0 0 C1.875 1.1875 1.875 1.1875 3 3 C3.42822025 5.85480169 3.40659584 7.34492892 1.875 9.8125 C-0.87155972 11.55198782 -2.81846974 11.39769128 -6 11 C-7.875 9.8125 -7.875 9.8125 -9 8 C-9.42822025 5.14519831 -9.40659584 3.65507108 -7.875 1.1875 C-5.12844028 -0.55198782 -3.18153026 -0.39769128 0 0 Z " fill="#0775C2" transform="translate(115,118)"/>
<path d="M0 0 C1.8125 1.125 1.8125 1.125 3 3 C3.39769128 6.18153026 3.55198782 8.12844028 1.8125 10.875 C-0.65507108 12.40659584 -2.14519831 12.42822025 -5 12 C-6.8125 10.875 -6.8125 10.875 -8 9 C-8.39769128 5.81846974 -8.55198782 3.87155972 -6.8125 1.125 C-4.34492892 -0.40659584 -2.85480169 -0.42822025 0 0 Z " fill="#0775C2" transform="translate(129,105)"/>
<path d="M0 0 C3.5 0.25 3.5 0.25 5.5 2.25 C5.75 5.75 5.75 5.75 5.5 9.25 C3.5 11.25 3.5 11.25 0.5625 11.5625 C-2.5 11.25 -2.5 11.25 -4.375 10.125 C-6.00531294 7.40781176 -5.83015665 5.35347254 -5.5 2.25 C-3.5 0.25 -3.5 0.25 0 0 Z " fill="#0775C2" transform="translate(85.5,144.75)"/>
<path d="M0 0 C3.5 0.25 3.5 0.25 5.5 2.25 C5.75 5.75 5.75 5.75 5.5 9.25 C3.5 11.25 3.5 11.25 0.5625 11.5625 C-2.5 11.25 -2.5 11.25 -4.375 10.125 C-6.00531294 7.40781176 -5.83015665 5.35347254 -5.5 2.25 C-3.5 0.25 -3.5 0.25 0 0 Z " fill="#0675C3" transform="translate(166.5,144.75)"/>
<path d="M0 0 C2 2 2 2 2.5 4.8125 C1.94920901 8.32379258 1.59765431 8.72458335 -1 10.875 C-1.99 11.57625 -2.98 12.2775 -4 13 C-4.66 12.01 -5.32 11.02 -6 10 C-6.86175198 8.92672708 -7.7369604 7.86412584 -8.625 6.8125 C-9.40875 5.884375 -10.1925 4.95625 -11 4 C-7.30497796 0.5223322 -5.10500447 -0.68066726 0 0 Z " fill="#474324" transform="translate(193,205)"/>
<path d="M0 0 C0.9590625 0.2784375 0.9590625 0.2784375 1.9375 0.5625 C2.9584375 0.7790625 2.9584375 0.7790625 4 1 C4.33 0.67 4.66 0.34 5 0 C6.67542976 0.28604898 8.34385343 0.61781233 10 1 C9.39810427 8.34312796 9.39810427 8.34312796 7.75 11.0625 C6 12 6 12 3.375 11.75 C1 11 1 11 0 10 C-0.07205511 8.31391034 -0.08386068 6.62499341 -0.0625 4.9375 C-0.05347656 4.01839844 -0.04445313 3.09929687 -0.03515625 2.15234375 C-0.02355469 1.44207031 -0.01195313 0.73179687 0 0 Z " fill="#BAB30D" transform="translate(102,225)"/>
<path d="M0 0 C6.75 0.75 6.75 0.75 9 3 C8.94140625 5.3125 8.94140625 5.3125 8.5625 8 C7.92717165 11.63039908 7.92717165 11.63039908 9 15 C6.525 14.01 6.525 14.01 4 13 C4 11.35 4 9.7 4 8 C3.34 8 2.68 8 2 8 C2 9.65 2 11.3 2 13 C0.35 12.67 -1.3 12.34 -3 12 C-2.7834375 11.21753906 -2.566875 10.43507813 -2.34375 9.62890625 C-2.0653125 8.61699219 -1.786875 7.60507812 -1.5 6.5625 C-1.08234375 5.04849609 -1.08234375 5.04849609 -0.65625 3.50390625 C0.04225458 1.27019139 0.04225458 1.27019139 0 0 Z " fill="#25232B" transform="translate(150,16)"/>
<path d="M0 0 C10.81057255 13.56805192 13.21407266 31.30789187 13.0625 48.0625 C13.05798828 49.02349609 13.05347656 49.98449219 13.04882812 50.97460938 C13.03717706 53.31647422 13.02082025 55.65820181 13 58 C12.67 58 12.34 58 12 58 C11.97421875 56.93265625 11.9484375 55.8653125 11.921875 54.765625 C11.35147118 37.91765717 8.82392739 22.41463008 1.390625 7.1875 C0 4 0 4 0 0 Z " fill="#146DBC" transform="translate(206,77)"/>
<path d="M0 0 C0 4.52835157 -3.07512156 6.6522855 -6.0625 9.75 C-6.68141113 10.40234619 -7.30032227 11.05469238 -7.93798828 11.72680664 C-14.82669322 18.94777811 -21.8990622 25.98856982 -29 33 C-29.33 32.01 -29.66 31.02 -30 30 C-20.1 20.1 -10.2 10.2 0 0 Z " fill="#1E7AB8" transform="translate(110,136)"/>
<path d="M0 0 C1.1015625 1.75 1.1015625 1.75 2 4 C1.4609375 5.875 1.4609375 5.875 0.375 8 C-3.25169064 16.21230287 -4.4192995 25.2148201 -6 34 C-6.19078125 34.99773437 -6.3815625 35.99546875 -6.578125 37.0234375 C-7.16029318 41.13095747 -7.36104571 45.23362815 -7.5625 49.375 C-7.60568359 50.20644531 -7.64886719 51.03789062 -7.69335938 51.89453125 C-7.79861805 53.92953228 -7.89973072 55.96474703 -8 58 C-8.33 58 -8.66 58 -9 58 C-9.35778775 38.24216544 -7.99331832 18.39203335 0 0 Z " fill="#2E84CE" transform="translate(13,78)"/>
<path d="M0 0 C2.5625 2.25 2.5625 2.25 5 5 C4.8125 7.3125 4.8125 7.3125 4 9 C3.01 9 2.02 9 1 9 C0.67 9.99 0.34 10.98 0 12 C-3.24208567 11.64950425 -4.61527704 11.43778819 -6.8125 8.9375 C-7.204375 8.298125 -7.59625 7.65875 -8 7 C-7 5 -7 5 -4.5625 4.0625 C-1.70136041 3.15452711 -1.70136041 3.15452711 0 0 Z " fill="#807C18" transform="translate(41,183)"/>
<path d="M0 0 C0.33 0 0.66 0 1 0 C2.80774212 23.71909627 2.80774212 23.71909627 -1 34 C-1.49009746 35.4008619 -1.97963793 36.80191874 -2.46875 38.203125 C-6.51184929 49.51184929 -6.51184929 49.51184929 -9 52 C-9.33 51.34 -9.66 50.68 -10 50 C-9.109375 47.53125 -9.109375 47.53125 -7.75 44.5 C-2.80724271 33.03554905 -0.9558367 22.49408351 -0.4375 10.0625 C-0.39431641 9.09248047 -0.35113281 8.12246094 -0.30664062 7.12304688 C-0.20137907 4.74881399 -0.09924293 2.37449079 0 0 Z " fill="#3285C8" transform="translate(217,117)"/>
<path d="M0 0 C0.66 0.33 1.32 0.66 2 1 C-8.89 11.89 -19.78 22.78 -31 34 C-31 31 -31 31 -28.5 28.3125 C-27.675 27.549375 -26.85 26.78625 -26 26 C-26.66 25.34 -27.32 24.68 -28 24 C-26.88625 23.62875 -25.7725 23.2575 -24.625 22.875 C-21.38621238 21.5205979 -21.10727559 21.23787197 -19.5625 17.8125 C-19.376875 16.884375 -19.19125 15.95625 -19 15 C-18.34 15.66 -17.68 16.32 -17 17 C-16.2575 16.071875 -15.515 15.14375 -14.75 14.1875 C-13.13356861 12.22206637 -11.86159908 10.90388825 -9.75 9.4375 C-7.41660309 7.52078111 -7.31672632 5.92971849 -7 3 C-6.34 3.66 -5.68 4.32 -5 5 C-3.35 3.35 -1.7 1.7 0 0 Z " fill="#FEFA00" transform="translate(111,133)"/>
<path d="M0 0 C0.66 0 1.32 0 2 0 C3.83691257 3.78187881 4.15837626 5.94568308 3 10 C0 11 0 11 -3 11 C-3.66 12.32 -4.32 13.64 -5 15 C-5.66 15 -6.32 15 -7 15 C-6.6641593 11.89347355 -6.40950721 10.39585697 -4.125 8.1875 C-2 7 -2 7 1 7 C1.33 6.01 1.66 5.02 2 4 C0.53932801 4.45082469 -0.91848032 4.91093537 -2.375 5.375 C-3.18710938 5.63023438 -3.99921875 5.88546875 -4.8359375 6.1484375 C-7.16459185 6.89854283 -7.16459185 6.89854283 -9 9 C-9.33 7.35 -9.66 5.7 -10 4 C-6.7 3.34 -3.4 2.68 0 2 C0 1.34 0 0.68 0 0 Z " fill="#393726" transform="translate(225,79)"/>
<path d="M0 0 C3.875 1.875 3.875 1.875 5 3 C5.23363881 4.84891946 5.41303635 6.70488031 5.5625 8.5625 C5.64628906 9.57441406 5.73007813 10.58632813 5.81640625 11.62890625 C5.87699219 12.41136719 5.93757812 13.19382812 6 14 C6.66 13.67 7.32 13.34 8 13 C7.1875 14.9375 7.1875 14.9375 6 17 C5.01 17.33 4.02 17.66 3 18 C2.34 14.04 1.68 10.08 1 6 C-2.3 9.56666667 -2.3 9.56666667 -2 13 C-3.32 12.34 -4.64 11.68 -6 11 C-5 9 -5 9 -2.4375 6.625 C0.45363407 4.10850142 0.45363407 4.10850142 0 0 Z " fill="#5C571F" transform="translate(185,31)"/>
<path d="M0 0 C6.93 0.495 6.93 0.495 14 1 C12 5 12 5 10 6 C9.34 5.67 8.68 5.34 8 5 C8 5.66 8 6.32 8 7 C7.34 7 6.68 7 6 7 C6 7.66 6 8.32 6 9 C6.66 9 7.32 9 8 9 C7.67 9.99 7.34 10.98 7 12 C0 3.55172414 0 3.55172414 0 0 Z " fill="#323027" transform="translate(35,58)"/>
<path d="M0 0 C-0.33 0.99 -0.66 1.98 -1 3 C-1.804375 2.814375 -2.60875 2.62875 -3.4375 2.4375 C-4.7059375 2.2209375 -4.7059375 2.2209375 -6 2 C-7.20561184 2.98267859 -7.20561184 2.98267859 -7.09765625 4.84765625 C-7.08605469 5.57855469 -7.07445313 6.30945313 -7.0625 7.0625 C-7.041875 8.361875 -7.02125 9.66125 -7 11 C-5.35 11 -3.7 11 -2 11 C-2.33 9.35 -2.66 7.7 -3 6 C-1.35 6 0.3 6 2 6 C1.67 7.98 1.34 9.96 1 12 C-6.29411765 13.45882353 -6.29411765 13.45882353 -9.5 11.375 C-11.29186133 8.53788623 -11.65793542 7.28967708 -11 4 C-7.9664952 -0.4895871 -5.17280925 -0.3979084 0 0 Z " fill="#27262A" transform="translate(128,13)"/>
<path d="M0 0 C0.99 0 1.98 0 3 0 C3 4.29 3 8.58 3 13 C2.01 13 1.02 13 0 13 C0.33 11.35 0.66 9.7 1 8 C-1.97 8 -4.94 8 -8 8 C-8 8.66 -8 9.32 -8 10 C-8.66 10 -9.32 10 -10 10 C-10 8.02 -10 6.04 -10 4 C-6.37 4.33 -2.74 4.66 1 5 C0.67 3.35 0.34 1.7 0 0 Z " fill="#434024" transform="translate(233,115)"/>
<path d="M0 0 C0.33 0.99 0.66 1.98 1 3 C-2.5827316 10.16546319 -7.95434263 16.35382256 -13.3125 22.25 C-13.82772217 22.82282715 -14.34294434 23.3956543 -14.8737793 23.98583984 C-16.18465541 25.38717307 -17.5867881 26.7019387 -19 28 C-19.99 28 -20.98 28 -22 28 C-19.32818884 24.84863299 -16.66685708 21.71276391 -13.84375 18.6953125 C-8.41459401 12.87570352 -4.04957416 6.849119 0 0 Z " fill="#1B6DC4" transform="translate(207,168)"/>
<path d="M0 0 C2.475 0.99 2.475 0.99 5 2 C2.77174356 4.22825644 1.34238372 4.69239369 -1.625 5.625 C-2.44226562 5.88539062 -3.25953125 6.14578125 -4.1015625 6.4140625 C-4.72804688 6.60742188 -5.35453125 6.80078125 -6 7 C-3.32752366 9.34287418 -3.32752366 9.34287418 0 10 C-0.66 11.32 -1.32 12.64 -2 14 C-2.433125 13.54625 -2.86625 13.0925 -3.3125 12.625 C-5.7235068 10.30328974 -7.28833758 9.03310058 -10.6875 8.875 C-11.450625 8.91625 -12.21375 8.9575 -13 9 C-12.5 7.1875 -12.5 7.1875 -11 5 C-7.39776912 3.14053309 -4.06166652 2 0 2 C0 1.34 0 0.68 0 0 Z " fill="#413E25" transform="translate(35,71)"/>
<path d="M0 0 C0.66 0.33 1.32 0.66 2 1 C2.5625 2.9609375 2.5625 2.9609375 3 5.375 C3.60200113 8.67525619 4.07605982 10.11408973 6 13 C4.02 13 2.04 13 0 13 C0.33 11.35 0.66 9.7 1 8 C-0.32 8.33 -1.64 8.66 -3 9 C-3 9.99 -3 10.98 -3 12 C-4.32 12 -5.64 12 -7 12 C-7 11.34 -7 10.68 -7 10 C-6.34 10 -5.68 10 -5 10 C-4.731875 9.0925 -4.46375 8.185 -4.1875 7.25 C-3.10423706 4.28528037 -2.01640543 2.3830246 0 0 Z " fill="#423F25" transform="translate(139,14)"/>
<path d="M0 0 C1.5 1.375 1.5 1.375 3 3 C3 3.66 3 4.32 3 5 C1.68 5.33 0.36 5.66 -1 6 C-0.2236068 9.0745356 -0.2236068 9.0745356 2 11 C0.02 11.99 0.02 11.99 -2 13 C-2 11.35 -2 9.7 -2 8 C-3.32 8.33 -4.64 8.66 -6 9 C-5.22520264 11.99152582 -5.22520264 11.99152582 -4 15 C-3.01 15.33 -2.02 15.66 -1 16 C-2.32 16 -3.64 16 -5 16 C-6.484375 14.3203125 -6.484375 14.3203125 -7.75 12.125 C-8.17796875 11.40570313 -8.6059375 10.68640625 -9.046875 9.9453125 C-10 8 -10 8 -10 6 C-9.071875 5.87625 -8.14375 5.7525 -7.1875 5.625 C-3.86074765 5.18466918 -3.86074765 5.18466918 -1 3 C-0.67 2.01 -0.34 1.02 0 0 Z " fill="#3D3B25" transform="translate(217,63)"/>
<path d="M0 0 C0.66 0 1.32 0 2 0 C3.2890625 1.6796875 3.2890625 1.6796875 4.625 3.875 C5.07101563 4.59429688 5.51703125 5.31359375 5.9765625 6.0546875 C7 8 7 8 7 10 C7.66 10 8.32 10 9 10 C9 10.66 9 11.32 9 12 C7.35 12 5.7 12 4 12 C4 10.68 4 9.36 4 8 C2.68 8.33 1.36 8.66 0 9 C0.33 10.32 0.66 11.64 1 13 C-0.32 13.33 -1.64 13.66 -3 14 C-2.01 9.38 -1.02 4.76 0 0 Z " fill="#302E28" transform="translate(106,14)"/>
<path d="M0 0 C0.66 0 1.32 0 2 0 C3.2890625 1.6796875 3.2890625 1.6796875 4.625 3.875 C5.07101563 4.59429687 5.51703125 5.31359375 5.9765625 6.0546875 C7 8 7 8 7 10 C3.37 10 -0.26 10 -4 10 C-2.8905928 6.51329166 -1.73662334 3.22515763 0 0 Z " fill="#DFE517" transform="translate(89,164)"/>
<path d="M0 0 C0.66 0 1.32 0 2 0 C3.2890625 1.6796875 3.2890625 1.6796875 4.625 3.875 C5.07101563 4.59429687 5.51703125 5.31359375 5.9765625 6.0546875 C7 8 7 8 7 10 C3.37 10 -0.26 10 -4 10 C-2.8905928 6.51329166 -1.73662334 3.22515763 0 0 Z " fill="#CCDD26" transform="translate(107,164)"/>
<path d="M0 0 C1.65 0.99 3.3 1.98 5 3 C4.34 3.9075 3.68 4.815 3 5.75 C0.65060172 8.93175815 0.65060172 8.93175815 1 13 C2.65 12.67 4.3 12.34 6 12 C6.66 9.69 7.32 7.38 8 5 C8.99 5.33 9.98 5.66 11 6 C10.38003922 7.29409289 9.75383647 8.58519673 9.125 9.875 C8.77695313 10.59429687 8.42890625 11.31359375 8.0703125 12.0546875 C7 14 7 14 5 16 C2.22130072 15.7862539 0.44844389 15.2989626 -1.875 13.75 C-3 12 -3 12 -2.8125 9.625 C-2.00518585 7.0167543 -1.02525686 4.52896693 0 2 C0 1.34 0 0.68 0 0 Z " fill="#444124" transform="translate(170,22)"/>
<path d="M0 0 C2.61724095 2.36797991 4.32861729 4.89600354 6 8 C6 8.66 6 9.32 6 10 C2.37 10 -1.26 10 -5 10 C-3.51799926 6.29499816 -2.091496 3.32738 0 0 Z " fill="#E2E615" transform="translate(126,164)"/>
<path d="M0 0 C0.66 0 1.32 0 2 0 C3.65 2.97 5.3 5.94 7 9 C3.04 9 -0.92 9 -5 9 C-3.43888122 5.87776243 -1.93312992 2.89969488 0 0 Z " fill="#E2E715" transform="translate(161,165)"/>
<path d="M0 0 C2.61724095 2.36797991 4.32861729 4.89600354 6 8 C6 8.66 6 9.32 6 10 C2.37 10 -1.26 10 -5 10 C-3.51799926 6.29499816 -2.091496 3.32738 0 0 Z " fill="#E3E714" transform="translate(144,164)"/>
<path d="M0 0 C1.485 0.495 1.485 0.495 3 1 C-0.2703382 4.2703382 -4.61693352 5.15999745 -8.9375 6.625 C-10.28811523 7.11226562 -10.28811523 7.11226562 -11.66601562 7.609375 C-18.25634901 9.84848898 -24.0614508 10.40810056 -31 10 C-31 9.67 -31 9.34 -31 9 C-30.16339844 8.84144531 -29.32679688 8.68289062 -28.46484375 8.51953125 C-18.89882598 6.60209026 -8.78223511 4.39111755 0 0 Z " fill="#227ABA" transform="translate(173,233)"/>
<path d="M0 0 C4.875 4.5 4.875 4.5 6 9 C2.37 9 -1.26 9 -5 9 C-3.47426795 5.18566987 -2.47253678 3.03447696 0 0 Z " fill="#F4EF44" transform="translate(126,150)"/>
<path d="M0 0 C0.99 0 1.98 0 3 0 C3.08090971 1.62418745 3.13914995 3.24951745 3.1875 4.875 C3.22230469 5.77992188 3.25710937 6.68484375 3.29296875 7.6171875 C3.19628906 8.40351563 3.09960938 9.18984375 3 10 C0 12 0 12 -2.5625 11.75 C-5 11 -5 11 -7 9 C-7.56520003 6.34462628 -7.73788198 3.70855287 -8 1 C-6.68 1 -5.36 1 -4 1 C-4 3.97 -4 6.94 -4 10 C-2.35 10 -0.7 10 1 10 C0.67 6.7 0.34 3.4 0 0 Z " fill="#7D7618" transform="translate(135,226)"/>
<path d="M0 0 C2.31 0 4.62 0 7 0 C8.0625 1.8125 8.0625 1.8125 9 4 C8.67 4.99 8.34 5.98 8 7 C8.33 7.99 8.66 8.98 9 10 C6.00667261 9.0022242 5.05233685 8.2477975 3 6 C3 7.32 3 8.64 3 10 C2.34 10 1.68 10 1 10 C0.67 6.7 0.34 3.4 0 0 Z " fill="#24232A" transform="translate(115,227)"/>
<path d="M0 0 C4.875 4.5 4.875 4.5 6 9 C2.37 9 -1.26 9 -5 9 C-3.47426795 5.18566987 -2.47253678 3.03447696 0 0 Z " fill="#F4F043" transform="translate(144,150)"/>
<path d="M0 0 C3.76607955 1.25535985 4.26441793 2.52883585 6 6 C6 6.99 6 7.98 6 9 C2.7 9 -0.6 9 -4 9 C-2.94124926 5.59687262 -1.99097846 2.98646769 0 0 Z " fill="#E7EB48" transform="translate(107,150)"/>
<path d="M0 0 C0.33 1.32 0.66 2.64 1 4 C-0.32 4 -1.64 4 -3 4 C-2.67 5.32 -2.34 6.64 -2 8 C-1.01 8 -0.02 8 1 8 C0.67 9.32 0.34 10.64 0 12 C-3.63 10.02 -7.26 8.04 -11 6 C-11 5.34 -11 4.68 -11 4 C-7.37 2.68 -3.74 1.36 0 0 Z " fill="#575320" transform="translate(25,114)"/>
<path d="M0 0 C4.29 0 8.58 0 13 0 C13 1.32 13 2.64 13 4 C12.34 4 11.68 4 11 4 C11 3.34 11 2.68 11 2 C10.01 2 9.02 2 8 2 C8 3.32 8 4.64 8 6 C8.99 6.33 9.98 6.66 11 7 C10.67 7.99 10.34 8.98 10 10 C8.7010161 9.09373216 7.41106833 8.17450463 6.125 7.25 C5.40570312 6.73953125 4.68640625 6.2290625 3.9453125 5.703125 C2 4 2 4 0 0 Z " fill="#323127" transform="translate(19,88)"/>
<path d="M0 0 C2.89377093 1.44688546 5.18533078 2.75081864 7.75 4.625 C8.67039062 5.29402344 8.67039062 5.29402344 9.609375 5.9765625 C10.06828125 6.31429688 10.5271875 6.65203125 11 7 C10.01 7.99 9.02 8.98 8 10 C7.34 9.67 6.68 9.34 6 9 C5.01 8.67 4.02 8.34 3 8 C2.67 9.65 2.34 11.3 2 13 C1.34 12.67 0.68 12.34 0 12 C0 8.04 0 4.08 0 0 Z " fill="#24232A" transform="translate(75,25)"/>
<path d="M0 0 C1.32 1.32 2.64 2.64 4 4 C-2.435 4.495 -2.435 4.495 -9 5 C-4.66350878 8.7555494 -4.66350878 8.7555494 -2 10 C-2.99 10.99 -3.98 11.98 -5 13 C-7 12 -7 12 -7.8125 10.25 C-9.38109573 7.27792388 -11.57487767 5.29748431 -14 3 C-13 2 -13 2 -10.05859375 1.90234375 C-8.26615234 1.91974609 -8.26615234 1.91974609 -6.4375 1.9375 C-4.64119141 1.95103516 -4.64119141 1.95103516 -2.80859375 1.96484375 C-1.88175781 1.97644531 -0.95492187 1.98804688 0 2 C0 1.34 0 0.68 0 0 Z " fill="#302E28" transform="translate(56,46)"/>
<path d="M0 0 C1.32 0.66 2.64 1.32 4 2 C4 3.32 4 4.64 4 6 C4.99 5.67 5.98 5.34 7 5 C7 9.24894725 6.82602292 10.07304769 4 13 C1.8125 13.75 1.8125 13.75 0 14 C0 13.34 0 12.68 0 12 C-0.66 11.67 -1.32 11.34 -2 11 C-0.68 11 0.64 11 2 11 C2 10.01 2 9.02 2 8 C1.34 7.67 0.68 7.34 0 7 C0.33 6.01 0.66 5.02 1 4 C0.34 3.67 -0.32 3.34 -1 3 C-0.67 2.01 -0.34 1.02 0 0 Z " fill="#F6EE01" transform="translate(49,196)"/>
<path d="M0 0 C3.5625 -0.25 3.5625 -0.25 7 0 C8 1 8 1 8.0625 3.5625 C8.041875 4.366875 8.02125 5.17125 8 6 C3.545 6.495 3.545 6.495 -1 7 C-1.33 5.68 -1.66 4.36 -2 3 C-1.34 2.01 -0.68 1.02 0 0 Z " fill="#F2E802" transform="translate(17,131)"/>
<path d="M0 0 C3.4375 0.9375 3.4375 0.9375 4.875 3 C5.1534375 3.9590625 5.1534375 3.9590625 5.4375 4.9375 C4.7775 4.9375 4.1175 4.9375 3.4375 4.9375 C3.1075 4.2775 2.7775 3.6175 2.4375 2.9375 C-0.08983235 2.28194881 -0.08983235 2.28194881 -2.5625 1.9375 C-2.8925 3.9175 -3.2225 5.8975 -3.5625 7.9375 C-2.5725 8.2675 -1.5825 8.5975 -0.5625 8.9375 C-0.2325 8.2775 0.0975 7.6175 0.4375 6.9375 C1.4275 7.2675 2.4175 7.5975 3.4375 7.9375 C2.7775 9.2575 2.1175 10.5775 1.4375 11.9375 C-1.2260969 11.57755447 -3.14433452 11.22588998 -5.375 9.6875 C-7.01614719 7.2689673 -6.99217368 5.80199123 -6.5625 2.9375 C-4.75279557 -0.25609605 -3.70782148 -0.0650495 0 0 Z " fill="#403C25" transform="translate(71.5625,212.0625)"/>
<path d="M0 0 C0.66 0.33 1.32 0.66 2 1 C1.67 2.65 1.34 4.3 1 6 C-0.65 6 -2.3 6 -4 6 C-2.68 7.32 -1.36 8.64 0 10 C-0.33 10.66 -0.66 11.32 -1 12 C-1.70125 11.34 -2.4025 10.68 -3.125 10 C-6.43460229 7.69766797 -8.06225823 7.63369844 -12 8 C-11.67 6.02 -11.34 4.04 -11 2 C-10.67 2.66 -10.34 3.32 -10 4 C-8.51965236 3.52449439 -7.04074979 3.04448784 -5.5625 2.5625 C-4.73878906 2.29566406 -3.91507813 2.02882812 -3.06640625 1.75390625 C-1.03780412 1.17844506 -1.03780412 1.17844506 0 0 Z " fill="#494523" transform="translate(234,131)"/>
<path d="M0 0 C-0.33 3.3 -0.66 6.6 -1 10 C-2.65 10.33 -4.3 10.66 -6 11 C-7.02214896 7.74770785 -7.18671298 6.41076857 -5.75 3.25 C-4.01993999 1.02563713 -3.00979027 0 0 0 Z " fill="#FAF000" transform="translate(177,25)"/>
<path d="M0 0 C3.35585467 3.0202692 4.22157001 4.55392503 6 9 C2.37 9 -1.26 9 -5 9 C-3.35 6.03 -1.7 3.06 0 0 Z " fill="#F3F142" transform="translate(126,133)"/>
<path d="M0 0 C0.33 0 0.66 0 1 0 C1.33 8.58 1.66 17.16 2 26 C1.67 25.34 1.34 24.68 1 24 C0.01 24 -0.98 24 -2 24 C-2.33 21.03 -2.66 18.06 -3 15 C-2.01 15.495 -2.01 15.495 -1 16 C-1 13.69 -1 11.38 -1 9 C-1.99 9.495 -1.99 9.495 -3 10 C-2.690625 9.46375 -2.38125 8.9275 -2.0625 8.375 C-0.82172561 5.6015043 -0.4090325 2.99957163 0 0 Z " fill="#FDF800" transform="translate(29,115)"/>
<path d="M0 0 C0.95310059 0.01047363 1.90620117 0.02094727 2.88818359 0.03173828 C4.43505859 0.04140625 4.43505859 0.04140625 6.01318359 0.05126953 C7.63353516 0.07640625 7.63353516 0.07640625 9.28662109 0.10205078 C10.37458984 0.11107422 11.46255859 0.12009766 12.58349609 0.12939453 C15.27642261 0.15301669 17.96891365 0.18595522 20.66162109 0.22705078 C19.01162109 1.87705078 17.36162109 3.52705078 15.66162109 5.22705078 C15.66162109 4.56705078 15.66162109 3.90705078 15.66162109 3.22705078 C9.06162109 2.89705078 2.46162109 2.56705078 -4.33837891 2.22705078 C-2.33837891 0.22705078 -2.33837891 0.22705078 0 0 Z " fill="#1B7BB8" transform="translate(105.33837890625,95.77294921875)"/>
<path d="M0 0 C1.2065625 0.0309375 1.2065625 0.0309375 2.4375 0.0625 C2.1075 1.0525 1.7775 2.0425 1.4375 3.0625 C0.4475 2.7325 -0.5425 2.4025 -1.5625 2.0625 C-1.5625 2.7225 -1.5625 3.3825 -1.5625 4.0625 C0.4175 4.7225 2.3975 5.3825 4.4375 6.0625 C4.7675 7.7125 5.0975 9.3625 5.4375 11.0625 C2.4375 13.0625 2.4375 13.0625 -0.25 12.6875 C-1.013125 12.48125 -1.77625 12.275 -2.5625 12.0625 C-2.5625 11.4025 -2.5625 10.7425 -2.5625 10.0625 C0.4075 10.5575 0.4075 10.5575 3.4375 11.0625 C3.4375 9.7425 3.4375 8.4225 3.4375 7.0625 C2.48875 7.10375 1.54 7.145 0.5625 7.1875 C-2.5625 7.0625 -2.5625 7.0625 -4.5625 5.0625 C-3.80953264 0.09291543 -3.80953264 0.09291543 0 0 Z " fill="#2B2929" transform="translate(94.5625,16.9375)"/>
<path d="M0 0 C1.32 1.32 2.64 2.64 4 4 C3.360625 4.78375 2.72125 5.5675 2.0625 6.375 C0.01857687 8.79539281 0.01857687 8.79539281 -1 11 C1.64 10.01 4.28 9.02 7 8 C7.33 8.66 7.66 9.32 8 10 C3.06632653 12.00691802 0.44479395 13 -5 13 C-3.35 8.71 -1.7 4.42 0 0 Z " fill="#403C25" transform="translate(207,50)"/>
<path d="M0 0 C2.475 0.99 2.475 0.99 5 2 C5 2.66 5 3.32 5 4 C5.66 4 6.32 4 7 4 C7 6.97 7 9.94 7 13 C7.66 13 8.32 13 9 13 C9 11.68 9 10.36 9 9 C9.99 9.33 10.98 9.66 12 10 C11.67 11.32 11.34 12.64 11 14 C9.02 14 7.04 14 5 14 C4.67 11.69 4.34 9.38 4 7 C3.34 7 2.68 7 2 7 C2.33 5.35 2.66 3.7 3 2 C2.01 1.67 1.02 1.34 0 1 C0 0.67 0 0.34 0 0 Z " fill="#F2EB02" transform="translate(109,224)"/>
<path d="M0 0 C0.66 0 1.32 0 2 0 C3.23568605 1.52834853 4.47027491 3.05765382 5.69140625 4.59765625 C7.31748495 6.34023014 8.63403644 6.82474344 11 7 C10.67 7.99 10.34 8.98 10 10 C8.948125 10.12375 7.89625 10.2475 6.8125 10.375 C3.54041229 10.91140782 0.99463924 11.63880035 -2 13 C-1.67 11.35 -1.34 9.7 -1 8 C0.65 7.67 2.3 7.34 4 7 C3.525625 6.5875 3.05125 6.175 2.5625 5.75 C0.83733482 3.817815 0.43415125 2.51807725 0 0 Z " fill="#403D25" transform="translate(16,97)"/>
<path d="M0 0 C0.66 0.66 1.32 1.32 2 2 C1.81511102 3.87014141 1.61370546 5.74014843 1.32861328 7.59765625 C0.72083077 12.04088056 0.62585339 16.5227472 0.4375 21 C0.39431641 21.96550781 0.35113281 22.93101563 0.30664062 23.92578125 C0.20158287 26.28374425 0.09943086 28.64179416 0 31 C-0.33 31 -0.66 31 -1 31 C-1.22894898 27.52187589 -1.42931154 24.04264128 -1.625 20.5625 C-1.68945312 19.58861328 -1.75390625 18.61472656 -1.8203125 17.61132812 C-2.15702749 11.31896675 -1.64922226 6.08701498 0 0 Z " fill="#4795BF" transform="translate(33,101)"/>
<path d="M0 0 C1.65 1.65 3.3 3.3 5 5 C4.34 6.98 3.68 8.96 3 11 C-0.08089673 8.22719294 -1.68775452 5.93673644 -3 2 C-2.01 1.34 -1.02 0.68 0 0 Z " fill="#F7EF01" transform="translate(183,210)"/>
<path d="M0 0 C1.32 0.33 2.64 0.66 4 1 C3.67 2.32 3.34 3.64 3 5 C1.68 5.33 0.36 5.66 -1 6 C-1 7.65 -1 9.3 -1 11 C-2.65 10.67 -4.3 10.34 -6 10 C-5.01 7.03 -4.02 4.06 -3 1 C-2.34 1.66 -1.68 2.32 -1 3 C-0.67 2.01 -0.34 1.02 0 0 Z " fill="#7B7719" transform="translate(153,18)"/>
<path d="M0 0 C2.19050021 0.09017996 4.378466 0.24666208 6.5625 0.4375 C7.76003906 0.53933594 8.95757812 0.64117187 10.19140625 0.74609375 C11.11824219 0.82988281 12.04507813 0.91367188 13 1 C13.33 2.32 13.66 3.64 14 5 C10.7 4.34 7.4 3.68 4 3 C4.99 4.98 5.98 6.96 7 9 C3.22471696 7.74157232 2.89332955 6.37506571 1 3 C0.34 2.34 -0.32 1.68 -1 1 C-0.67 0.67 -0.34 0.34 0 0 Z " fill="#3B3926" transform="translate(170,216)"/>
<path d="M0 0 C1.875 0.75 1.875 0.75 2.875 1.75 C2.91563832 3.41617115 2.917721 5.08388095 2.875 6.75 C1.885 7.08 0.895 7.41 -0.125 7.75 C0.205 6.1 0.535 4.45 0.875 2.75 C0.215 2.75 -0.445 2.75 -1.125 2.75 C-1.3725 3.719375 -1.62 4.68875 -1.875 5.6875 C-2.2875 6.698125 -2.7 7.70875 -3.125 8.75 C-5.25 9.625 -5.25 9.625 -7.125 9.75 C-7.455 9.09 -7.785 8.43 -8.125 7.75 C-7.135 7.75 -6.145 7.75 -5.125 7.75 C-5.186875 6.986875 -5.24875 6.22375 -5.3125 5.4375 C-5.125 2.75 -5.125 2.75 -3.875 0.875 C-2.125 -0.25 -2.125 -0.25 0 0 Z " fill="#3D3A25" transform="translate(230.125,94.25)"/>
<path d="M0 0 C1.65 0.33 3.3 0.66 5 1 C4.01 4.3 3.02 7.6 2 11 C3.98 10.67 5.96 10.34 8 10 C7.67 10.99 7.34 11.98 7 13 C2.545 12.01 2.545 12.01 -2 11 C-1.67 10.113125 -1.34 9.22625 -1 8.3125 C-0.08777857 5.29076653 0.18330958 3.11626294 0 0 Z " fill="#484523" transform="translate(90,221)"/>
<path d="M0 0 C0.66 0 1.32 0 2 0 C2 1.65 2 3.3 2 5 C-1.63 5 -5.26 5 -9 5 C-9 5.66 -9 6.32 -9 7 C-9.66 7 -10.32 7 -11 7 C-11 5.02 -11 3.04 -11 1 C-7.37 1.33 -3.74 1.66 0 2 C0 1.34 0 0.68 0 0 Z " fill="#484523" transform="translate(233,106)"/>
<path d="M0 0 C0 3.63 0 7.26 0 11 C-4 9 -4 9 -5 6 C-5.66 5.67 -6.32 5.34 -7 5 C-2.25 0 -2.25 0 0 0 Z " fill="#4E4B22" transform="translate(85,219)"/>
<path d="M0 0 C1.32 0.66 2.64 1.32 4 2 C4 5.3 4 8.6 4 12 C4.66 12.33 5.32 12.66 6 13 C4.02 13.99 4.02 13.99 2 15 C1.67 11.7 1.34 8.4 1 5 C0.01 5.66 -0.98 6.32 -2 7 C-1.67 6.030625 -1.34 5.06125 -1 4.0625 C0.05173363 1.37850426 0.05173363 1.37850426 0 0 Z " fill="#3E3B26" transform="translate(56,201)"/>
<path d="M0 0 C2.31 1.98 4.62 3.96 7 6 C6.67 6.99 6.34 7.98 6 9 C5.54625 8.34 5.0925 7.68 4.625 7 C4.08875 6.34 3.5525 5.68 3 5 C0.91866684 4.78049846 0.91866684 4.78049846 -0.5 6.3125 C-2.19049939 8.13603672 -2.19049939 8.13603672 -4 11 C-4.99 9.68 -5.98 8.36 -7 7 C-6.21625 6.5875 -5.4325 6.175 -4.625 5.75 C-1.61497551 4.05684925 -1.61497551 4.05684925 0 0 Z " fill="#3F3B25" transform="translate(48,192)"/>
<path d="M0 0 C4 5 4 5 8 10 C7.01 10.33 6.02 10.66 5 11 C5 11.66 5 12.32 5 13 C4.34 13 3.68 13 3 13 C2.9175 12.2575 2.835 11.515 2.75 10.75 C1.85566215 7.47076121 0.40099388 6.32354246 -2 4 C-2 3.01 -2 2.02 -2 1 C-1.34 0.67 -0.68 0.34 0 0 Z " fill="#312E28" transform="translate(59,34)"/>
<path d="M0 0 C8.75 1.75 8.75 1.75 11 4 C10.67 4.66 10.34 5.32 10 6 C9.34 6 8.68 6 8 6 C8 5.34 8 4.68 8 4 C6.35 3.67 4.7 3.34 3 3 C4.15173355 5.46800047 5.04783565 7.04783565 7 9 C6.01 9.66 5.02 10.32 4 11 C2.68 7.37 1.36 3.74 0 0 Z " fill="#3C3926" transform="translate(201,192)"/>
<path d="M0 0 C0.33 0.66 0.66 1.32 1 2 C3.02463255 2.65213292 3.02463255 2.65213292 5 3 C5 4.98 5 6.96 5 9 C3.35 8.67 1.7 8.34 0 8 C0 6.35 0 4.7 0 3 C-0.66 3 -1.32 3 -2 3 C-2 2.34 -2 1.68 -2 1 C-1.34 0.67 -0.68 0.34 0 0 Z " fill="#C1BC0B" transform="translate(220,93)"/>
<path d="M0 0 C1.9375 1.375 1.9375 1.375 2.6875 4 C2.77 4.78375 2.8525 5.5675 2.9375 6.375 C1.6175 6.705 0.2975 7.035 -1.0625 7.375 C-4.0625 3.75 -4.0625 3.75 -4.0625 0.375 C-2.0625 -0.625 -2.0625 -0.625 0 0 Z " fill="#F7EF01" transform="translate(190.0625,206.625)"/>
<path d="M0 0 C0.66 0.33 1.32 0.66 2 1 C-2.62 5.62 -7.24 10.24 -12 15 C-12.66 14.67 -13.32 14.34 -14 14 C-12.60919892 12.41224451 -11.21211596 10.82999061 -9.8125 9.25 C-8.64654297 7.92742188 -8.64654297 7.92742188 -7.45703125 6.578125 C-5.11544754 4.12113732 -2.69841735 2.05137234 0 0 Z " fill="#EAEE0F" transform="translate(48,34)"/>
<path d="M0 0 C2.73102271 0.95585795 3.91556098 1.45664571 5.5 3.875 C5.6875 7.0625 5.6875 7.0625 5.5 9.875 C3.52 10.865 3.52 10.865 1.5 11.875 C1.70625 10.76125 1.9125 9.6475 2.125 8.5 C2.310625 6.705625 2.310625 6.705625 2.5 4.875 C0.60244856 2.52526182 0.60244856 2.52526182 -2.625 2.75 C-3.57375 2.79125 -4.5225 2.8325 -5.5 2.875 C-3.68189192 0.48275253 -3.08240061 -0.15412003 0 0 Z " fill="#302E28" transform="translate(65.5,31.125)"/>
<path d="M0 0 C4.875 1.75 4.875 1.75 6 4 C5.34 4 4.68 4 4 4 C3.34 5.32 2.68 6.64 2 8 C1.01 8 0.02 8 -1 8 C-1.04241723 5.66705225 -1.04092937 3.33297433 -1 1 C-0.67 0.67 -0.34 0.34 0 0 Z " fill="#BDB60C" transform="translate(61,205)"/>
<path d="M0 0 C0.33 0.99 0.66 1.98 1 3 C1.66 3.33 2.32 3.66 3 4 C2.34 4 1.68 4 1 4 C1.2475 4.5775 1.495 5.155 1.75 5.75 C1.8325 6.4925 1.915 7.235 2 8 C0.1875 10.25 0.1875 10.25 -2 12 C-2.66 12 -3.32 12 -4 12 C-3.74438677 9.6568787 -3.40729228 7.32156597 -3 5 C-2.34 4.67 -1.68 4.34 -1 4 C-0.34786708 1.97536745 -0.34786708 1.97536745 0 0 Z " fill="#FDF400" transform="translate(46,187)"/>
<path d="M0 0 C0.33 1.65 0.66 3.3 1 5 C-0.65 5.33 -2.3 5.66 -4 6 C-6 3 -6 3 -6 0 C-3.50907189 -1.24546405 -2.58919267 -0.7767578 0 0 Z " fill="#BAB50D" transform="translate(222,69)"/>
<path d="M0 0 C1.32 1.32 2.64 2.64 4 4 C2.8553125 4.5878125 2.8553125 4.5878125 1.6875 5.1875 C-1.25691758 7.17327 -2.27467054 8.96013381 -4 12 C-4.66 12 -5.32 12 -6 12 C-6.66 10.68 -7.32 9.36 -8 8 C-6.8553125 7.4121875 -6.8553125 7.4121875 -5.6875 6.8125 C-2.75283929 4.83331022 -1.59873102 3.1133183 0 0 Z " fill="#24232A" transform="translate(201,44)"/>
<path d="M0 0 C0.99 0.33 1.98 0.66 3 1 C2.34 2.98 1.68 4.96 1 7 C0.34 6.01 -0.32 5.02 -1 4 C-2.98 6.31 -4.96 8.62 -7 11 C-6.01 11.66 -5.02 12.32 -4 13 C-5.65 12.67 -7.3 12.34 -9 12 C-8.45015228 8.12488273 -6.72444669 6.40423494 -3.9375 3.75 C-3.20402344 3.04359375 -2.47054687 2.3371875 -1.71484375 1.609375 C-1.14894531 1.07828125 -0.58304688 0.5471875 0 0 Z " fill="#C3D92B" transform="translate(91,132)"/>
<path d="M0 0 C6.93 0.33 13.86 0.66 21 1 C21 1.33 21 1.66 21 2 C15.06390334 2.89316269 9.93024803 2.97040422 4 2 C3.67 2.66 3.34 3.32 3 4 C2.01 2.68 1.02 1.36 0 0 Z " fill="#247FB1" transform="translate(127,96)"/>
<path d="M0 0 C-0.33 1.32 -0.66 2.64 -1 4 C-1.763125 4.12375 -2.52625 4.2475 -3.3125 4.375 C-6.20267136 4.88102792 -6.20267136 4.88102792 -9 7 C-9.66 6.34 -10.32 5.68 -11 5 C-8.19499369 0.79249053 -4.97384386 0 0 0 Z " fill="#DBD606" transform="translate(227,83)"/>
<path d="M0 0 C1.67542976 0.28604898 3.34385343 0.61781233 5 1 C4.67 2.98 4.34 4.96 4 7 C2.35 6.67 0.7 6.34 -1 6 C-1.042721 4.33388095 -1.04063832 2.66617115 -1 1 C-0.67 0.67 -0.34 0.34 0 0 Z " fill="#A8A210" transform="translate(46,199)"/>
<path d="M0 0 C2 4 2 4 1.3203125 7.234375 C0.92585937 8.39453125 0.53140625 9.5546875 0.125 10.75 C-0.26429688 11.92046875 -0.65359375 13.0909375 -1.0546875 14.296875 C-1.36664063 15.18890625 -1.67859375 16.0809375 -2 17 C-2.66 16.67 -3.32 16.34 -4 16 C-2.68 10.72 -1.36 5.44 0 0 Z " fill="#3083B4" transform="translate(241,149)"/>
<path d="M0 0 C-0.33 1.32 -0.66 2.64 -1 4 C-2.65 4 -4.3 4 -6 4 C-6.66 5.32 -7.32 6.64 -8 8 C-8.66 8 -9.32 8 -10 8 C-9.64505955 5.37344067 -9.27538036 3.42031739 -7.8125 1.1875 C-5.20638339 -0.51995571 -3.0400645 -0.20267097 0 0 Z " fill="#27262A" transform="translate(228,86)"/>
<path d="M0 0 C0.763125 0.309375 1.52625 0.61875 2.3125 0.9375 C4.18789677 1.67893593 6.08684652 2.36228217 8 3 C7.34 3 6.68 3 6 3 C6 3.66 6 4.32 6 5 C5.34 5 4.68 5 4 5 C4 5.66 4 6.32 4 7 C4.66 7 5.32 7 6 7 C5.67 7.99 5.34 8.98 5 10 C2.59927045 7.11912454 0.52708963 4.43595166 -1 1 C-0.67 0.67 -0.34 0.34 0 0 Z " fill="#878217" transform="translate(37,60)"/>
<path d="M0 0 C1.32 0.33 2.64 0.66 4 1 C3.67 1.33 3.34 1.66 3 2 C2.76924918 3.34747084 2.58846937 4.70377565 2.4375 6.0625 C2.2209375 8.0115625 2.2209375 8.0115625 2 10 C3.65 10 5.3 10 7 10 C6.67 10.66 6.34 11.32 6 12 C1.125 11.125 1.125 11.125 0 10 C-0.07205511 8.31391034 -0.08386068 6.62499341 -0.0625 4.9375 C-0.05347656 4.01839844 -0.04445313 3.09929687 -0.03515625 2.15234375 C-0.02355469 1.44207031 -0.01195313 0.73179687 0 0 Z " fill="#423F25" transform="translate(102,225)"/>
<path d="M0 0 C-1.19396559 3.58189678 -2.39907161 4.33296142 -5.375 6.5625 C-6.16648437 7.16191406 -6.95796875 7.76132812 -7.7734375 8.37890625 C-9.48687702 9.62641046 -11.23649659 10.82433106 -13 12 C-13 11.01 -13 10.02 -13 9 C-10.6640625 6.73828125 -10.6640625 6.73828125 -7.625 4.3125 C-6.62726562 3.50425781 -5.62953125 2.69601563 -4.6015625 1.86328125 C-2 0 -2 0 0 0 Z " fill="#2372BC" transform="translate(57,26)"/>
<path d="M0 0 C4.77984973 3.55709747 8.65067332 7.41304402 11 13 C10.67 13.99 10.34 14.98 10 16 C8.51633029 13.89888391 7.03797344 11.79435965 5.5625 9.6875 C5.14162109 9.09259766 4.72074219 8.49769531 4.28710938 7.88476562 C2.46155404 5.27057039 1.01412535 3.04237604 0 0 Z " fill="#186AC5" transform="translate(195,63)"/>
<path d="M0 0 C1.33333333 0 2.66666667 0 4 0 C4.309375 1.11375 4.61875 2.2275 4.9375 3.375 C5.82326483 6.7945155 5.82326483 6.7945155 7 9 C5.02 9 3.04 9 1 9 C1 7.35 1 5.7 1 4 C0.34 3.67 -0.32 3.34 -1 3 C-0.67 2.01 -0.34 1.02 0 0 Z " fill="#67621D" transform="translate(138,18)"/>
<path d="M0 0 C2.0625 0.4375 2.0625 0.4375 4 1 C3.67 2.65 3.34 4.3 3 6 C1.35 5.67 -0.3 5.34 -2 5 C-1.125 1.125 -1.125 1.125 0 0 Z " fill="#312F28" transform="translate(150,226)"/>
<path d="M0 0 C-1.40844718 3.21524305 -3.10344786 5.32183868 -5.625 7.75 C-6.57246094 8.67039063 -6.57246094 8.67039063 -7.5390625 9.609375 C-8.02117187 10.06828125 -8.50328125 10.5271875 -9 11 C-9.66 10.34 -10.32 9.68 -11 9 C-9.54782324 7.49403892 -8.08807139 5.99537896 -6.625 4.5 C-5.40683594 3.24703125 -5.40683594 3.24703125 -4.1640625 1.96875 C-2 0 -2 0 0 0 Z " fill="#2F7ABC" transform="translate(196,186)"/>
<path d="M0 0 C0.66 0.66 1.32 1.32 2 2 C1.54625 2.598125 1.0925 3.19625 0.625 3.8125 C-0.63295913 5.50590652 -1.82984724 7.24477086 -3 9 C-3.33 8.34 -3.66 7.68 -4 7 C-5.32 8.32 -6.64 9.64 -8 11 C-8.66 10.67 -9.32 10.34 -10 10 C-6.7 6.7 -3.4 3.4 0 0 Z " fill="#FDFA00" transform="translate(81,143)"/>
<path d="M0 0 C0.33 1.32 0.66 2.64 1 4 C1.66 4 2.32 4 3 4 C3.66 6.31 4.32 8.62 5 11 C3.68 11 2.36 11 1 11 C0.34 10.34 -0.32 9.68 -1 9 C-0.9765625 6.8359375 -0.9765625 6.8359375 -0.625 4.375 C-0.51414063 3.55773437 -0.40328125 2.74046875 -0.2890625 1.8984375 C-0.19367188 1.27195312 -0.09828125 0.64546875 0 0 Z " fill="#FAF301" transform="translate(217,92)"/>
<path d="M0 0 C0.33 0.66 0.66 1.32 1 2 C1.66 2 2.32 2 3 2 C2.67 2.99 2.34 3.98 2 5 C-1.5625 6.1875 -1.5625 6.1875 -5 7 C-3.75023244 3.34683329 -3.32901247 2.21934164 0 0 Z " fill="#E1DA05" transform="translate(211,54)"/>
<path d="M0 0 C0.99 0.33 1.98 0.66 3 1 C0.03 3.97 -2.94 6.94 -6 10 C-6.99 9.67 -7.98 9.34 -9 9 C-6.03 6.03 -3.06 3.06 0 0 Z " fill="#2F7AC1" transform="translate(62,54)"/>
<path d="M0 0 C1.65 0 3.3 0 5 0 C4.67 1.98 4.34 3.96 4 6 C1.36 6.33 -1.28 6.66 -4 7 C-3.34 6.34 -2.68 5.68 -2 5 C-1.01 5 -0.02 5 1 5 C0.67 3.35 0.34 1.7 0 0 Z " fill="#5F5A1F" transform="translate(125,19)"/>
<path d="M0 0 C-6.07877934 3.24201565 -11.18401613 3.33278764 -18 3 C-18 2.67 -18 2.34 -18 2 C-15.75256955 1.46818825 -13.50192898 0.94992874 -11.25 0.4375 C-9.99703125 0.14746094 -8.7440625 -0.14257812 -7.453125 -0.44140625 C-4.40526252 -0.93444283 -2.82358172 -1.07666879 0 0 Z " fill="#277DAE" transform="translate(160,240)"/>
<path d="M0 0 C1.32 0 2.64 0 4 0 C4.33 3.3 4.66 6.6 5 10 C3.68 9.34 2.36 8.68 1 8 C0.16113831 5.32209537 0.18233586 2.8262059 0 0 Z " fill="#444125" transform="translate(127,227)"/>
<path d="M0 0 C3.89006773 1.38780795 6.96558708 3.2152227 10.3125 5.625 C11.19550781 6.25664062 12.07851562 6.88828125 12.98828125 7.5390625 C13.65214844 8.02117187 14.31601563 8.50328125 15 9 C14.01 9.33 13.02 9.66 12 10 C9.58984375 8.671875 9.58984375 8.671875 6.9375 6.75 C6.05964844 6.12609375 5.18179688 5.5021875 4.27734375 4.859375 C2 3 2 3 0 0 Z " fill="#166BC6" transform="translate(64,196)"/>
<path d="M0 0 C1.37562854 1.28965176 2.70766393 2.62689293 4 4 C4 4.66 4 5.32 4 6 C0.37 6 -3.26 6 -7 6 C-7 5.34 -7 4.68 -7 4 C-4.36 4 -1.72 4 1 4 C0.67 2.68 0.34 1.36 0 0 Z " fill="#D6E34E" transform="translate(128,153)"/>
<path d="M0 0 C0.66 0.33 1.32 0.66 2 1 C0.54362329 2.95981557 -0.91500152 4.91788547 -2.375 6.875 C-2.7875 7.43058594 -3.2 7.98617187 -3.625 8.55859375 C-5.3254573 10.8350124 -6.9879119 12.9879119 -9 15 C-8.46512323 10.81013196 -7.1610304 8.49994696 -4.5 5.25 C-3.55640625 4.08210938 -3.55640625 4.08210938 -2.59375 2.890625 C-1.75936615 1.9008167 -0.9154007 0.9154007 0 0 Z " fill="#1569C6" transform="translate(53,64)"/>
<path d="M0 0 C1.32 0.33 2.64 0.66 4 1 C4.66 3.64 5.32 6.28 6 9 C2.96101874 7.98700625 1.87860833 7.5048111 0 5 C-0.1875 2.3125 -0.1875 2.3125 0 0 Z " fill="#73701B" transform="translate(118,228)"/>
<path d="M0 0 C0.99 0 1.98 0 3 0 C6 5.75 6 5.75 6 8 C6.66 8.33 7.32 8.66 8 9 C6.68 9.33 5.36 9.66 4 10 C3.32845067 8.71086513 2.66291141 7.41859796 2 6.125 C1.62875 5.40570313 1.2575 4.68640625 0.875 3.9453125 C0 2 0 2 0 0 Z " fill="#383627" transform="translate(163,219)"/>
<path d="M0 0 C0.66 0.33 1.32 0.66 2 1 C2.59355614 3.64860427 2.74209269 6.29197322 3 9 C1.68 8.67 0.36 8.34 -1 8 C-1.33 5.69 -1.66 3.38 -2 1 C-1.34 0.67 -0.68 0.34 0 0 Z " fill="#FEF100" transform="translate(170,218)"/>
<path d="M0 0 C1.67542976 0.28604898 3.34385343 0.61781233 5 1 C4.67 2.32 4.34 3.64 4 5 C2.68 5 1.36 5 0 5 C-0.5625 3.0625 -0.5625 3.0625 -1 1 C-0.67 0.67 -0.34 0.34 0 0 Z " fill="#292729" transform="translate(226,150)"/>
<path d="M0 0 C0.99 0 1.98 0 3 0 C3.33 1.32 3.66 2.64 4 4 C3.01 4.33 2.02 4.66 1 5 C1.33 6.32 1.66 7.64 2 9 C0.68 9.33 -0.64 9.66 -2 10 C-1.34 6.7 -0.68 3.4 0 0 Z " fill="#726E1A" transform="translate(105,18)"/>
<path d="M0 0 C2.31 1.98 4.62 3.96 7 6 C6.01 6.33 5.02 6.66 4 7 C3.67 7.99 3.34 8.98 3 10 C2.34 8.02 1.68 6.04 1 4 C-0.65 3.67 -2.3 3.34 -4 3 C-2.68 2.01 -1.36 1.02 0 0 Z " fill="#C6DA2A" transform="translate(169,142)"/>
<path d="M0 0 C2 3 2 3 1.79296875 5.41015625 C1.59316406 6.28542969 1.39335937 7.16070312 1.1875 8.0625 C0.99542969 8.94035156 0.80335938 9.81820312 0.60546875 10.72265625 C0 13 0 13 -1 15 C-1.66 15 -2.32 15 -3 15 C-2.01 10.05 -1.02 5.1 0 0 Z " fill="#3184C0" transform="translate(216,138)"/>
<path d="M0 0 C0.33 0 0.66 0 1 0 C1.66 3.3 2.32 6.6 3 10 C3.66 9.67 4.32 9.34 5 9 C4.1875 10.9375 4.1875 10.9375 3 13 C2.01 13.33 1.02 13.66 0 14 C0 9.38 0 4.76 0 0 Z " fill="#1F1E2B" transform="translate(188,35)"/>
<path d="M0 0 C4.20626034 1.50223584 5.73900021 4.28550034 8 8 C7.01 8.66 6.02 9.32 5 10 C4.566875 9.071875 4.13375 8.14375 3.6875 7.1875 C2.27961373 4.52815927 1.23876444 2.91894095 -1 1 C-0.67 0.67 -0.34 0.34 0 0 Z " fill="#29262A" transform="translate(183,208)"/>
<path d="M0 0 C2.66666667 2.66666667 5.33333333 5.33333333 8 8 C7.01 8.66 6.02 9.32 5 10 C3.76302083 8.50260417 2.52604167 7.00520833 1.2890625 5.5078125 C0.24749008 4.28948839 -0.86660097 3.13339903 -2 2 C-1.34 1.34 -0.68 0.68 0 0 Z " fill="#26232A" transform="translate(195,198)"/>
<path d="M0 0 C0.28875 0.61875 0.5775 1.2375 0.875 1.875 C1.93720042 4.13325765 1.93720042 4.13325765 4 6 C4 6.99 4 7.98 4 9 C4.66 9.33 5.32 9.66 6 10 C3 10 3 10 1.61328125 8.6875 C0.40885417 7.125 -0.79557292 5.5625 -2 4 C-1.34 2.68 -0.68 1.36 0 0 Z " fill="#D5E21F" transform="translate(160,149)"/>
<path d="M0 0 C1.65 0.33 3.3 0.66 5 1 C4.67 2.32 4.34 3.64 4 5 C2.35 4.67 0.7 4.34 -1 4 C-0.67 2.68 -0.34 1.36 0 0 Z " fill="#23232A" transform="translate(18,150)"/>
<path d="M0 0 C0.66 0.33 1.32 0.66 2 1 C0.60667426 4.36720387 -0.9789286 5.9859524 -4 8 C-4 7.01 -4 6.02 -4 5 C-5.32 4.67 -6.64 4.34 -8 4 C-6.576875 3.566875 -6.576875 3.566875 -5.125 3.125 C-1.94788422 2.23174891 -1.94788422 2.23174891 0 0 Z " fill="#C5DB2A" transform="translate(118,125)"/>
<path d="M0 0 C1.1171875 1.671875 1.1171875 1.671875 2 4 C1.3203125 6.578125 1.3203125 6.578125 0.125 9.25 C-0.26429687 10.14203125 -0.65359375 11.0340625 -1.0546875 11.953125 C-1.36664063 12.62859375 -1.67859375 13.3040625 -2 14 C-2.66 13.67 -3.32 13.34 -4 13 C-3.52140759 11.39566191 -3.04210442 9.79153584 -2.5625 8.1875 C-2.29566406 7.29417969 -2.02882813 6.40085937 -1.75390625 5.48046875 C-1.19612127 3.64526945 -0.60655425 1.81966274 0 0 Z " fill="#3081C2" transform="translate(13,78)"/>
<path d="M0 0 C4 2 4 2 5 4 C4.01 4.495 4.01 4.495 3 5 C2.34444881 7.52733235 2.34444881 7.52733235 2 10 C1.34 9.67 0.68 9.34 0 9 C0 6.03 0 3.06 0 0 Z " fill="#736E1B" transform="translate(75,28)"/>
<path d="M0 0 C3.26008643 3.16952847 6.22237877 6.39937989 9 10 C6 10 6 10 4.39453125 8.57421875 C3.61142578 7.64029297 3.61142578 7.64029297 2.8125 6.6875 C2.01779297 5.76517578 2.01779297 5.76517578 1.20703125 4.82421875 C0 3 0 3 0 0 Z " fill="#2875C0" transform="translate(28,195)"/>
<path d="M0 0 C2.97 0.99 5.94 1.98 9 3 C7.35 4.32 5.7 5.64 4 7 C2.35 5.02 0.7 3.04 -1 1 C-0.67 0.67 -0.34 0.34 0 0 Z " fill="#D1E021" transform="translate(134,126)"/>
<path d="M0 0 C0.33 0 0.66 0 1 0 C1 1.98 1 3.96 1 6 C-2.63 6 -6.26 6 -10 6 C-5.5 2.625 -5.5 2.625 -1 3 C-0.67 2.01 -0.34 1.02 0 0 Z " fill="#C1BA0B" transform="translate(27,103)"/>
<path d="M0 0 C1.98 0.66 3.96 1.32 6 2 C5.01 2.495 5.01 2.495 4 3 C4.77479736 5.99152582 4.77479736 5.99152582 6 9 C6.99 9.33 7.98 9.66 9 10 C7.68 10 6.36 10 5 10 C3.515625 8.3203125 3.515625 8.3203125 2.25 6.125 C1.60804688 5.04605469 1.60804688 5.04605469 0.953125 3.9453125 C0 2 0 2 0 0 Z " fill="#4E4B22" transform="translate(207,69)"/>
<path d="M0 0 C2 2 2 2 2.125 4.625 C2.08375 5.40875 2.0425 6.1925 2 7 C0.35 7 -1.3 7 -3 7 C-3 6.01 -3 5.02 -3 4 C-2.34 4 -1.68 4 -1 4 C-0.67 2.68 -0.34 1.36 0 0 Z " fill="#F7ED01" transform="translate(107,228)"/>
<path d="M0 0 C0.99 0.33 1.98 0.66 3 1 C3.33 1.99 3.66 2.98 4 4 C3 5 3 5 -0.5625 5.0625 C-1.696875 5.041875 -2.83125 5.02125 -4 5 C-3.67 4.34 -3.34 3.68 -3 3 C-2.34 3 -1.68 3 -1 3 C-0.67 2.01 -0.34 1.02 0 0 Z " fill="#FFF200" transform="translate(107,168)"/>
<path d="M0 0 C0.33 0 0.66 0 1 0 C1 2.64 1 5.28 1 8 C-2.3 7.34 -5.6 6.68 -9 6 C-9 5.67 -9 5.34 -9 5 C-6.36 5 -3.72 5 -1 5 C-0.67 3.35 -0.34 1.7 0 0 Z " fill="#4C4922" transform="translate(26,132)"/>
<path d="M0 0 C1.32 0.33 2.64 0.66 4 1 C3.979375 1.78375 3.95875 2.5675 3.9375 3.375 C3.81315937 5.98114961 3.81315937 5.98114961 5 8 C2.525 7.01 2.525 7.01 0 6 C0 4.02 0 2.04 0 0 Z " fill="#3A3826" transform="translate(154,23)"/>
<path d="M0 0 C0 0.66 0 1.32 0 2 C-3.63 2 -7.26 2 -11 2 C-11 1.34 -11 0.68 -11 0 C-9.54263913 -0.19491452 -8.08405407 -0.38069358 -6.625 -0.5625 C-5.81289062 -0.66691406 -5.00078125 -0.77132812 -4.1640625 -0.87890625 C-2 -1 -2 -1 0 0 Z " fill="#D1E151" transform="translate(150,157)"/>
<path d="M0 0 C-0.33 1.32 -0.66 2.64 -1 4 C-0.01 4 0.98 4 2 4 C1.67 4.66 1.34 5.32 1 6 C-0.98 5.34 -2.96 4.68 -5 4 C-5 3.01 -5 2.02 -5 1 C-2 0 -2 0 0 0 Z " fill="#E7DF04" transform="translate(34,76)"/>
<path d="M0 0 C-0.66 1.98 -1.32 3.96 -2 6 C-2.66 5.67 -3.32 5.34 -4 5 C-3.67 4.34 -3.34 3.68 -3 3 C-3.66 2.67 -4.32 2.34 -5 2 C-5.33 2.66 -5.66 3.32 -6 4 C-6 2.68 -6 1.36 -6 0 C-3.50907189 -1.24546405 -2.58919267 -0.7767578 0 0 Z " fill="#E9E004" transform="translate(77,217)"/>
<path d="M0 0 C3.25543229 0.34879632 4.01873107 1.02133261 6.25 3.5625 C6.8275 4.366875 7.405 5.17125 8 6 C7.01 6 6.02 6 5 6 C4.67 6.99 4.34 7.98 4 9 C3.71125 8.071875 3.4225 7.14375 3.125 6.1875 C2.1125 2.90208333 2.1125 2.90208333 0 0 Z " fill="#CADC28" transform="translate(156,130)"/>
<path d="M0 0 C0.99 0 1.98 0 3 0 C3.103125 0.639375 3.20625 1.27875 3.3125 1.9375 C3.539375 2.618125 3.76625 3.29875 4 4 C4.99 4.33 5.98 4.66 7 5 C6.67 5.99 6.34 6.98 6 8 C1.3125 4.38671875 1.3125 4.38671875 0 3 C0 2.01 0 1.02 0 0 Z " fill="#706B1B" transform="translate(23,90)"/>
<path d="M0 0 C0.99 0.33 1.98 0.66 3 1 C0.51047079 3.66735273 -1.63408134 5.55746343 -5 7 C-4.67 5.35 -4.34 3.7 -4 2 C-2.68 2 -1.36 2 0 2 C0 1.34 0 0.68 0 0 Z " fill="#9A9513" transform="translate(195,39)"/>
<path d="M0 0 C2.95183101 2.95183101 3.08663988 5.95511947 4 10 C3.01 10.495 3.01 10.495 2 11 C1.01 7.7 0.02 4.4 -1 1 C-0.67 0.67 -0.34 0.34 0 0 Z " fill="#2D80B6" transform="translate(10,158)"/>
<path d="M0 0 C0.66 0.33 1.32 0.66 2 1 C1.67 2.65 1.34 4.3 1 6 C-1.97 5.505 -1.97 5.505 -5 5 C-5 4.34 -5 3.68 -5 3 C-2.625 1.3125 -2.625 1.3125 0 0 Z " fill="#403D25" transform="translate(234,131)"/>
<path d="M0 0 C0.66 0.33 1.32 0.66 2 1 C-2.455 4.465 -2.455 4.465 -7 8 C-7.66 7.67 -8.32 7.34 -9 7 C-7.87720538 6.01830524 -6.75168527 5.03972702 -5.625 4.0625 C-4.68527344 3.24458984 -4.68527344 3.24458984 -3.7265625 2.41015625 C-2 1 -2 1 0 0 Z " fill="#1367C6" transform="translate(73,46)"/>
<path d="M0 0 C1.32 0 2.64 0 4 0 C4.66 0.99 5.32 1.98 6 3 C5.67 3.66 5.34 4.32 5 5 C3.02 4.34 1.04 3.68 -1 3 C-0.67 2.01 -0.34 1.02 0 0 Z " fill="#E5DD04" transform="translate(93,18)"/>
<path d="M0 0 C0.33 0 0.66 0 1 0 C1 4.29 1 8.58 1 13 C0.01 13 -0.98 13 -2 13 C-1.34 8.71 -0.68 4.42 0 0 Z " fill="#78711A" transform="translate(235,115)"/>
<path d="M0 0 C0.33 1.32 0.66 2.64 1 4 C-2 6 -2 6 -4.6875 5.625 C-5.450625 5.41875 -6.21375 5.2125 -7 5 C-7 4.34 -7 3.68 -7 3 C-4.03 3.495 -4.03 3.495 -1 4 C-0.67 2.68 -0.34 1.36 0 0 Z " fill="#565220" transform="translate(99,24)"/>
<path d="M0 0 C2.475 0.495 2.475 0.495 5 1 C5.33 1.99 5.66 2.98 6 4 C4.68 4.33 3.36 4.66 2 5 C1.34 3.35 0.68 1.7 0 0 Z " fill="#DAD307" transform="translate(204,195)"/>
<path d="M0 0 C0.66 0.33 1.32 0.66 2 1 C0.9024777 3.99324263 0.32317108 4.84610901 -2.625 6.25 C-3.40875 6.4975 -4.1925 6.745 -5 7 C-3.88820837 3.66462511 -2.52588702 2.36292656 0 0 Z " fill="#24222B" transform="translate(41,183)"/>
<path d="M0 0 C-0.33 1.32 -0.66 2.64 -1 4 C-3.475 3.01 -3.475 3.01 -6 2 C-6 1.34 -6 0.68 -6 0 C-2.25 -1.125 -2.25 -1.125 0 0 Z " fill="#C2BB0B" transform="translate(82,225)"/>
<path d="M0 0 C3.93673644 1.31224548 6.22719294 2.91910327 9 6 C4.58763974 6 3.21615077 3.9302707 0 1 C0 0.67 0 0.34 0 0 Z " fill="#1E6FBE" transform="translate(48,217)"/>
<path d="M0 0 C1.32 0.33 2.64 0.66 4 1 C3.01 1.495 3.01 1.495 2 2 C2.33 3.65 2.66 5.3 3 7 C0.5 5.625 0.5 5.625 -2 4 C-2 3.34 -2 2.68 -2 2 C-1.34 2 -0.68 2 0 2 C0 1.34 0 0.68 0 0 Z " fill="#908815" transform="translate(179,210)"/>
<path d="M0 0 C3.36720387 1.39332574 4.9859524 2.9789286 7 6 C4 6 4 6 1.8125 4.125 C0 2 0 2 0 0 Z " fill="#2881BD" transform="translate(99,190)"/>
<path d="M0 0 C0 0.66 0 1.32 0 2 C-0.99 2 -1.98 2 -3 2 C-3 2.66 -3 3.32 -3 4 C-4.32 3.67 -5.64 3.34 -7 3 C-7 2.34 -7 1.68 -7 1 C-4.53721199 -0.231394 -2.7204945 -0.07159196 0 0 Z " fill="#28272A" transform="translate(21,117)"/>
<path d="M0 0 C2.83022097 3.99560608 1.76210446 7.42737323 1 12 C0.67 12 0.34 12 0 12 C-0.19573608 10.56359829 -0.38127816 9.12580496 -0.5625 7.6875 C-0.66691406 6.88699219 -0.77132812 6.08648437 -0.87890625 5.26171875 C-1 3 -1 3 0 0 Z " fill="#4794B1" transform="translate(216,101)"/>
<path d="M0 0 C2.64752004 2.57784846 4.94432065 4.91648098 7 8 C6.01 8 5.02 8 4 8 C0 2.74285714 0 2.74285714 0 0 Z " fill="#206FC1" transform="translate(217,48)"/>
<path d="M0 0 C0.33 0 0.66 0 1 0 C1 3.3 1 6.6 1 10 C-2 6 -2 6 -2 3 C-1.34 2.01 -0.68 1.02 0 0 Z " fill="#FBF600" transform="translate(186,36)"/>
<path d="M0 0 C0.99 0.33 1.98 0.66 3 1 C2.67 2.32 2.34 3.64 2 5 C0.02 5 -1.96 5 -4 5 C-3.34 4.34 -2.68 3.68 -2 3 C-1.34 3.33 -0.68 3.66 0 4 C0 2.68 0 1.36 0 0 Z " fill="#BDB60C" transform="translate(118,233)"/>
<path d="M0 0 C1 3 1 3 0.0625 5.1875 C-0.4634375 6.0846875 -0.4634375 6.0846875 -1 7 C-2.32 6.34 -3.64 5.68 -5 5 C-5 4.34 -5 3.68 -5 3 C-3.68 3.33 -2.36 3.66 -1 4 C-0.67 2.68 -0.34 1.36 0 0 Z " fill="#1E79B6" transform="translate(182,146)"/>
</svg>
